<svg xmlns="http://www.w3.org/2000/svg" xmlns:xlink="http://www.w3.org/1999/xlink" id="Layer_1" x="0px" y="0px" viewBox="0 0 3311.1 2784.1" style="enable-background:new 0 0 3311.1 2784.1;" xml:space="preserve">
<style type="text/css">
	.st0{fill:#EEEEEE;}
	.st1{clip-path:url(#SVGID_2_);}
	.st2{fill:#CCCCCC;}
	.st3{opacity:0.8;fill:#FFFFFF;enable-background:new    ;}
	.st4{fill:#FFFFFF;}
	.st5{fill:#EBEBF7;}
	.st6{clip-path:url(#SVGID_4_);}
	.st7{opacity:0.6;}
	.st8{fill:#F78F20;}
	.st9{fill:#8BAFC1;}
	.st10{clip-path:url(#SVGID_6_);}
	.st11{fill:#6A889B;}
	.st12{clip-path:url(#SVGID_10_);}
	.st13{opacity:0.34;fill:#C4C4C4;enable-background:new    ;}
	.st14{fill:#7E8598;}
	.st15{fill:#989FAF;}
	.st16{clip-path:url(#SVGID_12_);}
	.st17{fill:#2D4754;}
	.st18{fill:#33658A;}
	.st19{clip-path:url(#SVGID_14_);}
	.st20{opacity:0.52;fill:#EEEEEE;enable-background:new    ;}
	.st21{fill:#232E33;}
	.st22{clip-path:url(#SVGID_16_);}
	.st23{fill:#192126;}
	.st24{fill:#FFB5A4;}
	.st25{clip-path:url(#SVGID_18_);}
	.st26{opacity:0.75;}
	.st27{fill:#FF7F6A;}
	.st28{clip-path:url(#SVGID_20_);}
	.st29{fill:#E0872F;}
	.st30{fill:#C67A56;}
	.st31{clip-path:url(#SVGID_22_);}
	.st32{fill:#822C2C;}
	.st33{fill:none;stroke:#3A0909;stroke-width:4;stroke-linecap:round;stroke-miterlimit:10;}
	.st34{clip-path:url(#SVGID_24_);}
	.st35{clip-path:url(#SVGID_26_);}
	.st36{clip-path:url(#SVGID_28_);}
	.st37{fill:#FFBA55;}
	.st38{clip-path:url(#SVGID_30_);}
	.st39{fill:#F4A640;}
	.st40{clip-path:url(#SVGID_32_);}
	.st41{fill:#E29233;}
	.st42{clip-path:url(#SVGID_34_);}
	.st43{fill:#EF9C41;}
	.st44{clip-path:url(#SVGID_36_);}
	.st45{fill:#DB802E;}
	.st46{clip-path:url(#SVGID_38_);}
	.st47{fill:#DD781D;}
	.st48{opacity:0.42;fill:#DD781D;enable-background:new    ;}
	.st49{clip-path:url(#SVGID_42_);}
	.st50{opacity:0.28;fill:#192126;enable-background:new    ;}
	.st51{fill:#75573C;}
	.st52{clip-path:url(#SVGID_46_);}
	.st53{fill:#604524;}
	.st54{clip-path:url(#SVGID_48_);}
	.st55{opacity:0.5;}
	.st56{clip-path:url(#SVGID_50_);}
	.st57{opacity:0.5;clip-path:url(#SVGID_52_);fill:#FF7F6A;}
	.st58{fill:#EA725E;}
	.st59{clip-path:url(#SVGID_54_);}
	.st60{fill:#FFE1C7;}
	.st61{fill:#E55353;}
	.st62{clip-path:url(#SVGID_56_);}
	.st63{clip-path:url(#SVGID_58_);}
	.st64{clip-path:url(#SVGID_60_);}
	.st65{fill:#F6A538;}
	.st66{clip-path:url(#SVGID_62_);}
	.st67{opacity:0.62;fill:#FF7F6A;enable-background:new    ;}
	.st68{fill:#2D607F;}
	.st69{fill:#26A2A5;}
	.st70{clip-path:url(#SVGID_66_);}
	.st71{opacity:0.65;}
	.st72{fill:#FFFFFF;stroke:#33658A;stroke-width:8;stroke-miterlimit:10;}
	.st73{fill:#FFFFFF;stroke:#F78F20;stroke-width:8;stroke-miterlimit:10;}
</style>
<path class="st0" d="M2249.2,205.3h583.2c55.4,0,100.3,44.9,100.3,100.3v944.5c0,55.4-44.9,100.3-100.3,100.3h-583.2  c-55.4,0-100.3-44.9-100.3-100.3V305.7C2148.9,250.2,2193.8,205.3,2249.2,205.3z"></path>
<g>
	<defs>
		<path id="SVGID_1_" d="M2249.2,205.3h583.2c55.4,0,100.3,44.9,100.3,100.3v944.5c0,55.4-44.9,100.3-100.3,100.3h-583.2    c-55.4,0-100.3-44.9-100.3-100.3V305.7C2148.9,250.2,2193.8,205.3,2249.2,205.3z"></path>
	</defs>
	<clipPath id="SVGID_2_">
		<use xlink:href="#SVGID_1_" style="overflow:visible;"></use>
	</clipPath>
	<g class="st1">
		<g>
			<rect x="2107.1" y="145.3" class="st2" width="854.1" height="200.7"></rect>
		</g>
		<path class="st3" d="M2250,489.6h556.7c29.1,0,52.8,23.6,52.8,52.7v34.3c0,29.1-23.6,52.8-52.8,52.8H2250    c-29.1,0-52.8-23.6-52.8-52.8v-34.3C2197.3,513.2,2220.9,489.6,2250,489.6z"></path>
		<path class="st3" d="M2250,683.9h556.7c29.1,0,52.8,23.6,52.8,52.8V771c0,29.1-23.6,52.8-52.8,52.8H2250    c-29.1,0-52.8-23.6-52.8-52.8v-34.3C2197.3,707.5,2220.9,683.9,2250,683.9z"></path>
		<path class="st3" d="M2250,882h556.7c29.1,0,52.8,23.6,52.8,52.8v34.3c0,29.1-23.6,52.8-52.8,52.8H2250    c-29.1,0-52.8-23.6-52.8-52.8v-34.3C2197.3,905.7,2220.9,882,2250,882z"></path>
	</g>
</g>
<circle class="st4" cx="2640.9" cy="279.5" r="24.6"></circle>
<circle class="st4" cx="2737.9" cy="279.5" r="24.6"></circle>
<circle class="st4" cx="2834.8" cy="279.5" r="24.6"></circle>
<path class="st5" d="M587.7,205.3h583.2c55.4,0,100.3,44.9,100.3,100.3v944.5c0,55.4-44.9,100.3-100.3,100.3H587.7  c-55.4,0-100.3-44.9-100.3-100.3V305.7C487.4,250.2,532.3,205.3,587.7,205.3z"></path>
<g>
	<defs>
		<path id="SVGID_3_" d="M587.7,205.3h583.2c55.4,0,100.3,44.9,100.3,100.3v944.5c0,55.4-44.9,100.3-100.3,100.3H587.7    c-55.4,0-100.3-44.9-100.3-100.3V305.7C487.4,250.2,532.3,205.3,587.7,205.3z"></path>
	</defs>
	<use xlink:href="#SVGID_3_" style="overflow:visible;fill:#F2C083;"></use>
	<clipPath id="SVGID_4_">
		<use xlink:href="#SVGID_3_" style="overflow:visible;"></use>
	</clipPath>
	<g class="st6">
		<g class="st7">
			<rect x="321.3" y="122" class="st8" width="1003.7" height="225"></rect>
		</g>
	</g>
</g>
<path class="st4" d="M1167.1,894.4H593.7c-7.5,0-13.5-6-13.5-13.5l0,0c0-7.5,6-13.5,13.5-13.5c0,0,0,0,0,0h573.4  c7.5,0,13.5,6,13.5,13.5c0,0,0,0,0,0l0,0C1180.6,888.4,1174.6,894.4,1167.1,894.4z"></path>
<path class="st4" d="M593.7,992.7h573.4c7.5,0,13.5,6,13.5,13.5l0,0c0,7.5-6,13.5-13.5,13.5H593.7c-7.5,0-13.5-6-13.5-13.5l0,0  C580.2,998.8,586.3,992.7,593.7,992.7z"></path>
<path class="st4" d="M593.7,1118.1h573.4c7.5,0,13.5,6,13.5,13.5l0,0c0,7.5-6,13.5-13.5,13.5H593.7c-7.5,0-13.5-6-13.5-13.5l0,0  C580.2,1124.1,586.3,1118.1,593.7,1118.1z"></path>
<path class="st4" d="M1167.1,1270.4H593.7c-7.5,0-13.5-6-13.5-13.5c0,0,0,0,0,0l0,0c0-7.5,6-13.5,13.5-13.5h573.4  c7.5,0,13.5,6,13.5,13.5l0,0C1180.6,1264.3,1174.6,1270.4,1167.1,1270.4C1167.1,1270.4,1167.1,1270.4,1167.1,1270.4z"></path>
<circle class="st4" cx="975.3" cy="279.5" r="24.6"></circle>
<circle class="st4" cx="1072.2" cy="279.5" r="24.6"></circle>
<circle class="st4" cx="1169.2" cy="279.5" r="24.6"></circle>
<path class="st4" d="M608.8,384h301.1c27.7,0,50.2,22.5,50.2,50.2v301.1c0,27.7-22.5,50.2-50.2,50.2H608.8  c-27.7,0-50.2-22.5-50.2-50.2V434.2C558.7,406.5,581.1,384,608.8,384z"></path>
<rect x="1025.2" y="433.9" class="st4" width="177" height="64"></rect>
<rect x="1025.2" y="558.8" class="st4" width="177" height="64"></rect>
<rect x="1025.2" y="683.6" class="st4" width="177" height="64"></rect>
<path class="st9" d="M1418.5,205.3h583.2c55.4,0,100.3,44.9,100.3,100.3v944.5c0,55.4-44.9,100.3-100.3,100.3h-583.2  c-55.4,0-100.3-44.9-100.3-100.3V305.7C1318.2,250.2,1363.1,205.3,1418.5,205.3z"></path>
<g>
	<defs>
		<path id="SVGID_5_" d="M1418.5,205.3h583.2c55.4,0,100.3,44.9,100.3,100.3v944.5c0,55.4-44.9,100.3-100.3,100.3h-583.2    c-55.4,0-100.3-44.9-100.3-100.3V305.7C1318.2,250.2,1363.1,205.3,1418.5,205.3z"></path>
	</defs>
	<clipPath id="SVGID_6_">
		<use xlink:href="#SVGID_5_" style="overflow:visible;"></use>
	</clipPath>
	<g class="st10">
		<g class="st7">
			<rect x="1281.8" y="168.5" class="st11" width="850.6" height="178.4"></rect>
		</g>
	</g>
</g>
<path class="st3" d="M1442.5,713.9h108.2c36.9,0,66.8,29.9,66.8,66.8V1169c0,36.9-29.9,66.8-66.8,66.8h-108.2  c-36.9,0-66.8-29.9-66.8-66.8V780.7C1375.7,743.8,1405.6,713.9,1442.5,713.9z"></path>
<path class="st3" d="M1708.3,713.9h261.2c36.9,0,66.8,29.9,66.8,66.8V1169c0,36.9-29.9,66.8-66.8,66.8h-261.2  c-36.9,0-66.8-29.9-66.8-66.8V780.7C1641.5,743.8,1671.4,713.9,1708.3,713.9z"></path>
<circle class="st4" cx="1808.1" cy="279.5" r="24.6"></circle>
<circle class="st4" cx="1905.1" cy="279.5" r="24.6"></circle>
<circle class="st4" cx="2002" cy="279.5" r="24.6"></circle>
<path class="st4" d="M2025.9,445.9h-639.8c-5.8,0-10.4-4.7-10.4-10.5c0,0,0,0,0,0l0,0c0-5.8,4.7-10.5,10.4-10.5h639.8  c5.8,0,10.4,4.7,10.4,10.5l0,0C2036.4,441.2,2031.7,445.9,2025.9,445.9C2025.9,445.9,2025.9,445.9,2025.9,445.9z"></path>
<path class="st4" d="M2025.9,537.8h-639.8c-5.8,0-10.4-4.7-10.4-10.5c0,0,0,0,0,0l0,0c0-5.8,4.7-10.5,10.4-10.5h639.8  c5.8,0,10.4,4.7,10.4,10.5l0,0C2036.4,533.1,2031.7,537.8,2025.9,537.8C2025.9,537.8,2025.9,537.8,2025.9,537.8z"></path>
<path class="st4" d="M1386.2,608.9h639.8c5.8,0,10.4,4.7,10.4,10.5v0c0,5.8-4.7,10.5-10.4,10.5h-639.8c-5.8,0-10.4-4.7-10.4-10.5v0  C1375.7,613.5,1380.4,608.9,1386.2,608.9z"></path>
<path class="st0" d="M450.7,2368.4c3.9-10.3-515.8-843.5-43.6-884.3s444.1,313.2,882.8,190.9s708.3-383.1,1078.3-121.7  s513-32.7,630.5,80.7c298.3,288-215.2,714.4-227.4,724.6S450.7,2368.4,450.7,2368.4z"></path>
<g>
	<defs>
		<path id="SVGID_7_" d="M450.7,2368.4c3.9-10.3-515.8-843.5-43.6-884.3s444.1,313.2,882.8,190.9s708.3-383.1,1078.3-121.7    s513-32.7,630.5,80.7c298.3,288-215.2,714.4-227.4,724.6S450.7,2368.4,450.7,2368.4z"></path>
	</defs>
	<clipPath id="SVGID_8_">
		<use xlink:href="#SVGID_7_" style="overflow:visible;"></use>
	</clipPath>
</g>
<ellipse class="st0" cx="1688.9" cy="2368.4" rx="1428.3" ry="176"></ellipse>
<g>
	<defs>
		<ellipse id="SVGID_9_" cx="1688.9" cy="2368.4" rx="1428.3" ry="176"></ellipse>
	</defs>
	<clipPath id="SVGID_10_">
		<use xlink:href="#SVGID_9_" style="overflow:visible;"></use>
	</clipPath>
	<g class="st12">
		<ellipse class="st13" cx="1012.8" cy="2364.4" rx="496.9" ry="81.3"></ellipse>
		<ellipse class="st13" cx="2585.4" cy="2342.4" rx="347.2" ry="56.1"></ellipse>
		<ellipse class="st13" cx="1932.8" cy="2416" rx="275.6" ry="75.9"></ellipse>
	</g>
</g>
<path class="st14" d="M2729.9,2311.7c-22.8-8.3-69.9-14-124.3-14s-101.5,5.7-124.3,14h-14.5v27.7c0,14,62.1,25.3,138.8,25.3  s138.8-11.3,138.8-25.3v-27.7H2729.9z"></path>
<ellipse class="st15" cx="2605.6" cy="2311.7" rx="138.8" ry="25.3"></ellipse>
<path class="st11" d="M2629.1,2309.8c0,0-3.2,8-23.4,8c-19,0-23.4-8-23.4-8V1484h46.7L2629.1,2309.8z"></path>
<g>
	<defs>
		<path id="SVGID_11_" d="M2629.1,2309.8c0,0-3.2,8-23.4,8c-19,0-23.4-8-23.4-8V1484h46.7L2629.1,2309.8z"></path>
	</defs>
	<use xlink:href="#SVGID_11_" style="overflow:visible;fill:#6A889B;"></use>
	<clipPath id="SVGID_12_">
		<use xlink:href="#SVGID_11_" style="overflow:visible;"></use>
	</clipPath>
	<g class="st16">
		<polygon class="st11" points="2537.1,1702.1 2689.3,1702.1 2689.3,1591.1 2520.8,1591.1   "></polygon>
	</g>
</g>
<path class="st17" d="M3047,1484c-81.2-29.7-249.2-50.1-443.4-50.1s-362.2,20.4-443.4,50.1h-51.9v40.3c0,49.9,221.7,90.4,495.3,90.4  s495.3-40.5,495.3-90.4V1484H3047z"></path>
<ellipse class="st18" cx="2603.6" cy="1484" rx="495.3" ry="90.4"></ellipse>
<g>
	<defs>
		<ellipse id="SVGID_13_" cx="2603.6" cy="1484" rx="495.3" ry="90.4"></ellipse>
	</defs>
	<clipPath id="SVGID_14_">
		<use xlink:href="#SVGID_13_" style="overflow:visible;"></use>
	</clipPath>
	<g class="st19">
		<polygon class="st20" points="2500.1,1339.5 2350.7,1628.9 2500.1,1628.9 2629.1,1350.8   "></polygon>
		<polygon class="st20" points="2774.4,1339.5 2625,1628.9 2774.4,1628.9 2871.4,1348   "></polygon>
	</g>
</g>
<path class="st21" d="M2131.8,542.6c0,0-35.7-3.2-44.7-49.2s22.5-71.6,37.3-75.6c0,0-4.5-32,20.8-44.9s56.4-9.5,73.4,3.2  s14.8,15.1,29.8,13.3s30.1-11.6,54.1,1.4s8.1,30.8,24.9,39.5s43.7,26.8,43.7,54.8c0,28-16.6,30-12.2,39.6s-3.9,34-26.4,47  s-16.6,29.3-27,43.3s-33.3,48.6-46,51.8s-23.3-6.1-23.3-7.1s-48.4-89.6-48.4-89.6L2131.8,542.6z"></path>
<g>
	<defs>
		<path id="SVGID_15_" d="M2131.8,542.6c0,0-35.7-3.2-44.7-49.2s22.5-71.6,37.3-75.6c0,0-4.5-32,20.8-44.9s56.4-9.5,73.4,3.2    s14.8,15.1,29.8,13.3s30.1-11.6,54.1,1.4s8.1,30.8,24.9,39.5s43.7,26.8,43.7,54.8c0,28-16.6,30-12.2,39.6s-3.9,34-26.4,47    s-16.6,29.3-27,43.3s-33.3,48.6-46,51.8s-23.3-6.1-23.3-7.1s-48.4-89.6-48.4-89.6L2131.8,542.6z"></path>
	</defs>
	<clipPath id="SVGID_16_">
		<use xlink:href="#SVGID_15_" style="overflow:visible;"></use>
	</clipPath>
	<g class="st22">
		<path class="st23" d="M2332.7,411.5c0,0-32.7,16.7-24.5,55.2s-43.6,37.5-59.4,31.9s-31.1-19.6-43.7-14.2s-27.1,8.7-43.9-2    s-24.7,10.5-46.3,17.4s-31-8.8-31-8.8l5.1,48.2c0,0,22,14,22.8,13.4s24.7-1.7,24.7-1.7l63.5,13.3l22.1,103.5l46.3,12.6l73.6-66.4    c0,0,35.1-70.5,37.4-72.8s-3.4-94-3.4-94L2332.7,411.5z"></path>
	</g>
</g>
<path class="st24" d="M2127,512.3c0,0-17.6,109.3,9.8,142.3c17.8,21.5,51.6,7.8,52.1,17.4s-0.5,40.7-10.6,47s-51.5,17.6-51.5,17.6  s9.9,58.9,49.3,70.8s81.4-12.7,93-28.5s24-40.2,24-40.2s-45.8-8.1-49.7-19s-2.3-50.1,3.8-68.1s8.2-23.3,8.2-23.3s23.4,4.8,27.7-24.8  s-10.2-36.1-18.9-33.1s-8.8,8.5-8.8,8.5s-7.4-36.8-4.1-66.6c0,0-11.8,11.5-24.9,8.5s-19.8-18.1-19.8-18.1s-14.1,13.9-29.2,14.3  s-29.8-18.3-29.8-18.3S2142.7,514.6,2127,512.3z"></path>
<g>
	<defs>
		<path id="SVGID_17_" d="M2127,512.3c0,0-17.6,109.3,9.8,142.3c17.8,21.5,51.6,7.8,52.1,17.4s-0.5,40.7-10.6,47    s-51.5,17.6-51.5,17.6s9.9,58.9,49.3,70.8s81.4-12.7,93-28.5s24-40.2,24-40.2s-45.8-8.1-49.7-19s-2.3-50.1,3.8-68.1    s8.2-23.3,8.2-23.3s23.4,4.8,27.7-24.8s-10.2-36.1-18.9-33.1s-8.8,8.5-8.8,8.5s-7.4-36.8-4.1-66.6c0,0-11.8,11.5-24.9,8.5    s-19.8-18.1-19.8-18.1s-14.1,13.9-29.2,14.3s-29.8-18.3-29.8-18.3S2142.7,514.6,2127,512.3z"></path>
	</defs>
	<clipPath id="SVGID_18_">
		<use xlink:href="#SVGID_17_" style="overflow:visible;"></use>
	</clipPath>
	<g class="st25">
		<g class="st26">
			<path class="st27" d="M2114.1,528.6c0,0,16.5,10.2,34.7-6.6c0,0,3.2,13.6,27.7,13.6s33-15.2,33-15.2s0.2,10.7,23.7,14.6     c0,0,9,56.7,25.7,53.6s15.5,33.9,10,45.8c0,0,23-2.7,23.3-9.9s3.4-42.9,3.1-43.4s-15.8-22-15.8-22l-14.6-13.6l-10.6-46.3     l-111.5-16.2l-27.6,22.3L2114.1,528.6z"></path>
		</g>
		<path class="st27" d="M2180,672.8c0,0-7.9-1.3,4.9-4.4s33.2-7.5,45.1-16.5s-1,27.2-31.5,39.3s-22,0.8-22-0.7    S2180,672.8,2180,672.8z"></path>
	</g>
</g>
<path class="st24" d="M2015.5,926.2c0,0-12.7,104.7-29.3,111s-134.8-75.3-167.3-111c0,0,5.1-45.8-8.3-66.2s-73.7-56-95.5-6.3  s-19.6,74.8,2.2,93.8s53.3,26.1,58.2,31.4s134.1,134.3,205.2,155.4c71.1,21.1,93.3-77.2,100.2-101.5c6.9-24.3,18-92,18-92  L2015.5,926.2z"></path>
<g>
	<defs>
		<path id="SVGID_19_" d="M2015.5,926.2c0,0-12.7,104.7-29.3,111s-134.8-75.3-167.3-111c0,0,5.1-45.8-8.3-66.2s-73.7-56-95.5-6.3    s-19.6,74.8,2.2,93.8s53.3,26.1,58.2,31.4s134.1,134.3,205.2,155.4c71.1,21.1,93.3-77.2,100.2-101.5c6.9-24.3,18-92,18-92    L2015.5,926.2z"></path>
	</defs>
	<clipPath id="SVGID_20_">
		<use xlink:href="#SVGID_19_" style="overflow:visible;"></use>
	</clipPath>
	<g class="st28">
		<g class="st26">
			<path class="st27" d="M1772.7,992.9c0,0,132.4,88.5,188.3,102.5s63.7-64,63.7-64s32.7,3.8,33.7,4.1s-14.6,110.3-14.6,110.3     s-43.6,20.1-44.6,20.1s-76.3-22.5-76.3-22.5L1772.7,992.9z"></path>
		</g>
	</g>
</g>
<path class="st29" d="M2072.9,753.2c0,0-21.7,5.8-33.3,50.2c-11.6,44.4-46,195.1-46,195.1s9.5,36,64.5,39.1L2072.9,753.2z"></path>
<path class="st24" d="M1969.1,2146.9c0.3,1.4,57.2,86.5,46.2,93.7s-0.7,19.9,14.2,20.7s74.7-25.4,74.7-25.4l4-54.1l-68.9-106.9  L1969.1,2146.9z"></path>
<path class="st30" d="M2016.2,2229.7c0,0-19.1,68-40.9,103.1s-30,51.5-10.9,72.3s43.9,4.1,72.4-15.8c39.5-27.6,82-88.4,82-88.4  l8.6,9.7c0,0,63.1-54.6,62.7-55.1l-14.3-18c0,0-5.1-15.3-23.1-38.1s-49-39.6-56.5-33.9s-1.5,21.7-36.4,46.1  C2024.8,2236,2016.2,2229.7,2016.2,2229.7z"></path>
<g>
	<defs>
		<path id="SVGID_21_" d="M2016.2,2229.7c0,0-19.1,68-40.9,103.1s-30,51.5-10.9,72.3s43.9,4.1,72.4-15.8c39.5-27.6,82-88.4,82-88.4    l8.6,9.7c0,0,63.1-54.6,62.7-55.1l-14.3-18c0,0-5.1-15.3-23.1-38.1s-49-39.6-56.5-33.9s-1.5,21.7-36.4,46.1    C2024.8,2236,2016.2,2229.7,2016.2,2229.7z"></path>
	</defs>
	<clipPath id="SVGID_22_">
		<use xlink:href="#SVGID_21_" style="overflow:visible;"></use>
	</clipPath>
	<g class="st31">
		<path class="st32" d="M1949.6,2358.6c0,0,33.8-5.5,72.2,50.6c38.4,56.1-73.1,44.8-76.7,40.6s-18.9-54.6-17.8-56.3    S1949.6,2358.6,1949.6,2358.6z"></path>
		<path class="st32" d="M1962.7,2417.4c0,0,16.2,0.1,55.7-33.4c39.5-33.6,58.9-68.2,90.1-98.4s69.1-59.8,69.1-59.8    s23.9,28.2,25.8,29.1s15,20,5.1,27.8s-159.4,133.9-168,141.5c-8.6,7.6-59.8,23.3-59.8,23.3L1962.7,2417.4z"></path>
		<path class="st33" d="M1976,2315.5c0.6,0.7,17.8-4.7,30.5,9.9"></path>
		<path class="st33" d="M1989.9,2291.1c0,0,13.3-1.7,31.1,13.6"></path>
		<path class="st33" d="M1998.3,2268.8c0,0,25.7,1.9,38,17.7"></path>
		<path class="st33" d="M2005.2,2242.2c0,0,27.1-6.5,45.1,22.3"></path>
	</g>
</g>
<path class="st33" d="M2020.9,2239.9c0,0-24-18.4-37-9.7s-3.3,30.6,9.8,26.9S2020.9,2239.9,2020.9,2239.9z"></path>
<path class="st24" d="M1896.1,2236.9c-0.8,1.2-17.7,102.2-30.6,99.9s-14.2,14-3.9,24.8s71.8,32.8,71.8,32.8l40-36.6l23.2-125.1  L1896.1,2236.9z"></path>
<path class="st30" d="M1873.6,2329.5c0,0-60.6,36.4-100.5,47s-57.2,16.9-57.6,45.1s29.1,33,63.5,38.1c47.7,7,120.4-8.1,120.4-8.1  l-0.4,13c0,0,83.4,3.5,83.4,2.9s2-22.9,2-22.9s6.8-14.7,9.3-43.6s-8.5-62.4-17.9-63.5s-16,14.7-58.1,8.6  S1873.6,2329.5,1873.6,2329.5z"></path>
<g>
	<defs>
		<path id="SVGID_23_" d="M1873.6,2329.5c0,0-60.6,36.4-100.5,47s-57.2,16.9-57.6,45.1s29.1,33,63.5,38.1    c47.7,7,120.4-8.1,120.4-8.1l-0.4,13c0,0,83.4,3.5,83.4,2.9s2-22.9,2-22.9s6.8-14.7,9.3-43.6s-8.5-62.4-17.9-63.5    s-16,14.7-58.1,8.6S1873.6,2329.5,1873.6,2329.5z"></path>
	</defs>
	<clipPath id="SVGID_24_">
		<use xlink:href="#SVGID_23_" style="overflow:visible;"></use>
	</clipPath>
	<g class="st34">
		<path class="st32" d="M1736.6,2377.6c0,0,28.4,19.2,17.9,86.4s-83.9-17.5-83.7-23.1s23.8-52.7,25.7-53.2    S1736.6,2377.6,1736.6,2377.6z"></path>
		<path class="st32" d="M1705.8,2429.4c0,0,11.7,11.2,63.5,13.9s89.6-9.2,133-9.8s91.3,3.9,91.3,3.9s-2,37-1.2,38.9    s-2.8,24.8-15.4,23.7s-207.9-11.9-219.3-12.2s-59.5-24-59.5-24L1705.8,2429.4z"></path>
		<path class="st33" d="M1785.4,2364.4c-0.1,0.9,16.1,8.8,15.4,28.1"></path>
		<path class="st33" d="M1812.2,2356.1c0,0,10.8,7.9,13.3,31.2"></path>
		<path class="st33" d="M1833.7,2345.6c0,0,17.4,19,15.5,39"></path>
		<path class="st33" d="M1857,2331c0,0,24.2,13.9,17.5,47.1"></path>
	</g>
</g>
<path class="st33" d="M1869.9,2340.2c0,0-4.8-29.9-20.3-32.4s-23.4,20-11.3,26.4S1869.9,2340.2,1869.9,2340.2z"></path>
<path class="st18" d="M2031.3,1312.3l-26,23.6c0,0-98.6,130.6-138.4,184.7s-146,171.6-123.6,224.7s230.2,448.6,230.2,448.6  l121.1-69.4c0,0-166.5-361.8-148.1-392.4s231.7-289.1,231.7-289.1L2031.3,1312.3z"></path>
<g>
	<defs>
		<path id="SVGID_25_" d="M2031.3,1312.3l-26,23.6c0,0-98.6,130.6-138.4,184.7s-146,171.6-123.6,224.7s230.2,448.6,230.2,448.6    l121.1-69.4c0,0-166.5-361.8-148.1-392.4s231.7-289.1,231.7-289.1L2031.3,1312.3z"></path>
	</defs>
	<clipPath id="SVGID_26_">
		<use xlink:href="#SVGID_25_" style="overflow:visible;"></use>
	</clipPath>
	<g class="st35">
		<path class="st17" d="M2041.9,1438c0,0-4.7,51.2-25.4,97.2s-154.7,163.9-134,222.9s74.1,196.9,95.3,321.7l21.1,124.9l77.8-7.3    l61.6-77.8L1969.2,1742l215.9-221.4l-12.3-62L2041.9,1438"></path>
	</g>
</g>
<path class="st18" d="M2090.8,1419.5c0,0-91.7,304.9-104.8,376.9c-13.1,72-117.3,476.4-117.3,476.4s53.2,64.3,129.2,42.9  c0,0,100.3-324.8,121.1-387.6s103.8-251.5,138.8-334s55.7-139.8,55.7-139.8L2090.8,1419.5z"></path>
<g>
	<defs>
		<path id="SVGID_27_" d="M2090.8,1419.5c0,0-91.7,304.9-104.8,376.9c-13.1,72-117.3,476.4-117.3,476.4s53.2,64.3,129.2,42.9    c0,0,100.3-324.8,121.1-387.6s103.8-251.5,138.8-334s55.7-139.8,55.7-139.8L2090.8,1419.5z"></path>
	</defs>
	<clipPath id="SVGID_28_">
		<use xlink:href="#SVGID_27_" style="overflow:visible;"></use>
	</clipPath>
	<g class="st36">
		<path class="st17" d="M2141.4,1455.2c0,0,46.8,31.7,29.5,151.2s-117.3,319.7-137.8,378.9c-20.4,59.2-57.2,270.2-92.9,301    s-44.9,37.5-44.9,37.5l58.4,40.9c0,0,67.1-3.9,67.2-8.7s201.1-533.1,201.1-533.1l80.3-338.9L2141.4,1455.2z"></path>
	</g>
</g>
<path class="st37" d="M2199.8,790.5c21.9,0,61.7-20.2,75.3-55.8c1.2-4.9,18.9,1.7,32.2,5.4s76.1,16.6,85.6,50.4s10.1,288,0,387.9  s-70.3,322-70.3,322s-141.2,34.1-233.1-15.9c-92-50-133.7-93.2-133-113s42.3-85.2,58.9-207.4S2044,893.7,2044,847s3.2-87,27.5-95.2  c24.3-8.1,53.2-18,57.8-19.6S2140.9,790.5,2199.8,790.5z"></path>
<g>
	<defs>
		<path id="SVGID_29_" d="M2199.8,790.5c21.9,0,61.7-20.2,75.3-55.8c1.2-4.9,18.9,1.7,32.2,5.4s76.1,16.6,85.6,50.4    s10.1,288,0,387.9s-70.3,322-70.3,322s-141.2,34.1-233.1-15.9c-92-50-133.7-93.2-133-113s42.3-85.2,58.9-207.4    S2044,893.7,2044,847s3.2-87,27.5-95.2c24.3-8.1,53.2-18,57.8-19.6S2140.9,790.5,2199.8,790.5z"></path>
	</defs>
	<clipPath id="SVGID_30_">
		<use xlink:href="#SVGID_29_" style="overflow:visible;"></use>
	</clipPath>
	<g class="st38">
		<path class="st39" d="M2318.6,845c0,0,7.1,120.5-35.8,170c-42.9,49.5-102,55.2-76,122.1s-5.7,174.6-84.8,206.3    c-79.2,31.7-63.3,137.9-131.2,109.3c0,0,72,112.3,167.5,115.9s211-4.9,212.4-4.8s48.5-182,48.5-182l46.5-252.3l-28.6-262    l-29.1-47.5L2318.6,845z"></path>
		<g>
			<defs>
				<path id="SVGID_31_" d="M2318.6,845c0,0,7.1,120.5-35.8,170c-42.9,49.5-102,55.2-76,122.1s-5.7,174.6-84.8,206.3      c-79.2,31.7-63.3,137.9-131.2,109.3c0,0,72,112.3,167.5,115.9s211-4.9,212.4-4.8s48.5-182,48.5-182l46.5-252.3l-28.6-262      l-29.1-47.5L2318.6,845z"></path>
			</defs>
			<clipPath id="SVGID_32_">
				<use xlink:href="#SVGID_31_" style="overflow:visible;"></use>
			</clipPath>
			<g class="st40">
				<path class="st41" d="M2298.4,955.3c0,0,3.5,65.1,6.7,111.8c3.2,46.7,34.8,366.8,34.8,366.8s29.7,14.7,41.2-25.2      s-24.6-426-24.6-426L2298.4,955.3z"></path>
			</g>
		</g>
	</g>
</g>
<path class="st24" d="M2315.9,937.6c0,0,11.6,114.7,14.1,136.7s-0.7,53.6,5.8,107.8s21.6,248.2,28.7,269.4s20.8,28.6,69.4,50.3  s29.7-6.7,13-17.4s-6.8-15.5,9.5-8.2s76,25.7,92.2,16.3s-22.5-45.6-56.9-56.8s-49.9-3.5-66.8-13.4s-8-94.2-4.5-169.9  c3.7-78.5,1.6-114.2-4.8-161.2c-3.7-27.5-9-143.1-8.9-163.9c0-2.1,0-3.2,0-3.2L2315.9,937.6z"></path>
<g>
	<defs>
		<path id="SVGID_33_" d="M2315.9,937.6c0,0,11.6,114.7,14.1,136.7s-0.7,53.6,5.8,107.8s21.6,248.2,28.7,269.4s20.8,28.6,69.4,50.3    s29.7-6.7,13-17.4s-6.8-15.5,9.5-8.2s76,25.7,92.2,16.3s-22.5-45.6-56.9-56.8s-49.9-3.5-66.8-13.4s-8-94.2-4.5-169.9    c3.7-78.5,1.6-114.2-4.8-161.2c-3.7-27.5-9-143.1-8.9-163.9c0-2.1,0-3.2,0-3.2L2315.9,937.6z"></path>
	</defs>
	<clipPath id="SVGID_34_">
		<use xlink:href="#SVGID_33_" style="overflow:visible;"></use>
	</clipPath>
	<g class="st42">
		<g class="st26">
			<path class="st27" d="M2388.4,929.5c-0.2,1.2,3.8,9,4.6,78.3s4.6,78.8,7.3,103.9s11.8,102.4,9.1,173.1s9.3,126.6,9.4,126.9     s14.4-72.8,14.4-72.8l-0.4-282.4l-20-131.3L2388.4,929.5z"></path>
		</g>
	</g>
</g>
<path class="st43" d="M2364.4,769.8c28.4-3.1,47.1,41.8,53.9,75.6s15.9,179.2,15.9,179.2s-15.9,28.6-65,29.1s-64-15.3-63.4-16.9  s-3.2-104.7,3.2-162.8S2335.3,772.9,2364.4,769.8z"></path>
<g>
	<defs>
		<path id="SVGID_35_" d="M2364.4,769.8c28.4-3.1,47.1,41.8,53.9,75.6s15.9,179.2,15.9,179.2s-15.9,28.6-65,29.1s-64-15.3-63.4-16.9    s-3.2-104.7,3.2-162.8S2335.3,772.9,2364.4,769.8z"></path>
	</defs>
	<clipPath id="SVGID_36_">
		<use xlink:href="#SVGID_35_" style="overflow:visible;"></use>
	</clipPath>
	<g class="st44">
		<path class="st45" d="M2360.9,762.8c0,0,20.1,30,26.6,104.2s-3.7,128-36.8,128.3s-50.4-26.6-50.4-26.6l-12.2,75.9    c0,0,24.7,23.5,27.8,24.5s142.7-10.6,142.7-10.6l0.7-53.1L2445,828.4l-27.6-65h-57.9"></path>
	</g>
</g>
<path class="st8" d="M1774.6,848.9v111.3c0,0,54.6-1.5,54.6-56.7S1774.6,848.9,1774.6,848.9z M1778.6,942.3v-75.4  c0,0,37.9,0.3,37.9,37.7S1778.7,942.3,1778.6,942.3L1778.6,942.3z"></path>
<path class="st8" d="M1781.6,828.3h-144v149c0,0,25.2,15.7,72,15.7c54.9,0,72-15.7,72-15.7V828.3z"></path>
<g>
	<defs>
		<path id="SVGID_37_" d="M1781.6,828.3h-144v149c0,0,25.2,15.7,72,15.7c54.9,0,72-15.7,72-15.7V828.3z"></path>
	</defs>
	<clipPath id="SVGID_38_">
		<use xlink:href="#SVGID_37_" style="overflow:visible;"></use>
	</clipPath>
	<g class="st46">
		<path class="st47" d="M1742.1,800.1c0,2,28.6,35.9,19.9,95.3c-8.7,59.4-39.8,78.3-92.9,79.3s-69.4-6.1-69.4-6.1l20.9,37.8    l181.4,9.2l3-214.5L1742.1,800.1z"></path>
		<path class="st48" d="M1643.5,876.4c0.2,21.4-1,64.6,4.1,60.5s8.2-68.9,7.1-83S1643,828.9,1643.5,876.4z"></path>
	</g>
</g>
<ellipse class="st47" cx="1709.5" cy="828.3" rx="72" ry="12.5"></ellipse>
<path class="st11" d="M1178.5,2338.5c0,0-35,68.8-277.1,68.6c-256.4-0.3-288.5-68.6-288.5-68.6v-345.8h565.6V2338.5z"></path>
<g>
	<defs>
		<path id="SVGID_39_" d="M1178.5,2338.5c0,0-35,68.8-277.1,68.6c-256.4-0.3-288.5-68.6-288.5-68.6v-345.8h565.6V2338.5z"></path>
	</defs>
	<clipPath id="SVGID_40_">
		<use xlink:href="#SVGID_39_" style="overflow:visible;"></use>
	</clipPath>
</g>
<path class="st17" d="M597.9,1890.6c0,0-20.6,14.7-20.9,67.4c-0.2,38.5,15.5,63.6,15.5,63.6c14.3,40.9,137.7,73.3,301,73.3  s261.1-25.8,295.6-70.9c0,0,14.6-22.2,15.5-62.4c0.9-45.7-15.5-70.9-15.5-70.9L597.9,1890.6z"></path>
<g>
	<defs>
		<path id="SVGID_41_" d="M597.9,1890.6c0,0-20.6,14.7-20.9,67.4c-0.2,38.5,15.5,63.6,15.5,63.6c14.3,40.9,137.7,73.3,301,73.3    s261.1-25.8,295.6-70.9c0,0,14.6-22.2,15.5-62.4c0.9-45.7-15.5-70.9-15.5-70.9L597.9,1890.6z"></path>
	</defs>
	<clipPath id="SVGID_42_">
		<use xlink:href="#SVGID_41_" style="overflow:visible;"></use>
	</clipPath>
	<g class="st49">
		<path class="st50" d="M561.2,2010.9c2.2,1.4,123.6,75,356.3,41.4s147.8-117.8,147.8-117.8l77.1-43.5c0,0,66.4-15.8,78.6-15.1    s51.8,41.5,59.8,82.2s16.8,104.6-9.1,124.9s-152.1,42.1-190.7,46.4s-185.7,12.9-287.1,6.4s-185-41-185-41L561.2,2010.9z"></path>
	</g>
</g>
<ellipse class="st18" cx="893.6" cy="1890.6" rx="295.6" ry="70.9"></ellipse>
<g>
	<defs>
		<ellipse id="SVGID_43_" cx="893.6" cy="1890.6" rx="295.6" ry="70.9"></ellipse>
	</defs>
	<clipPath id="SVGID_44_">
		<use xlink:href="#SVGID_43_" style="overflow:visible;"></use>
	</clipPath>
</g>
<path class="st51" d="M799.3,789.2c0,0-29.9-37.5-68.2-26S686,826,686,927.1s12.2,389.6,49,394.3s30.9-99.1,31.2-173.9  s-1.3-278.6-1.3-278.6L799.3,789.2z"></path>
<g>
	<defs>
		<path id="SVGID_45_" d="M799.3,789.2c0,0-29.9-37.5-68.2-26S686,826,686,927.1s12.2,389.6,49,394.3s30.9-99.1,31.2-173.9    s-1.3-278.6-1.3-278.6L799.3,789.2z"></path>
	</defs>
	<clipPath id="SVGID_46_">
		<use xlink:href="#SVGID_45_" style="overflow:visible;"></use>
	</clipPath>
	<g class="st52">
		<path class="st53" d="M788.6,768.3c0,0-63.3,46-54.6,173.1s19.9,292.6-39.8,299.2c0,0,0,110.8,42.4,104.7s89.9,9.2,86.3-36.8    s-4.1-146.1-4.1-163.4s-21.4-280-21.4-280l15.3-90.2L788.6,768.3z"></path>
		<path class="st8" d="M786.8,773.4c0,0-27.1,11.5-41.6,50s17.1,62.6,17.1,62.6l29.4-18.4l28.8-69.7L786.8,773.4z"></path>
	</g>
</g>
<path class="st51" d="M985.9,944.4c0,0,37.1-3.8,30.1-80.8c-7.4-82.2-65.6-104.7-128.4-102.4s-137.8,32.4-127.9,136.5  s88.9,124.8,114.5,116.7L985.9,944.4z"></path>
<g>
	<defs>
		<path id="SVGID_47_" d="M985.9,944.4c0,0,37.1-3.8,30.1-80.8c-7.4-82.2-65.6-104.7-128.4-102.4s-137.8,32.4-127.9,136.5    s88.9,124.8,114.5,116.7L985.9,944.4z"></path>
	</defs>
	<clipPath id="SVGID_48_">
		<use xlink:href="#SVGID_47_" style="overflow:visible;"></use>
	</clipPath>
	<g class="st54">
		<path class="st53" d="M748.8,926.6c0,0,49.2,26.3,72-2.7s57.9-23.6,92.7-42.4s45.8-31.9,43.8-44.4s18-69.1-21.1-81.9    c0,0,50.7,9.9,53.2,9.9s36.4,43.7,36.4,43.7l-1.8,57.9l-0.9,83.5l-58.1,55.2l-106.6,16.8l-68.2-22.4L748.8,926.6z"></path>
	</g>
</g>
<path class="st24" d="M849.2,1014.1c1.3,17.8,1.3,35.7,0,53.4c-2.3,27.9-5.4,33.9-5.4,33.9s13.9,32.5,47.8,35.3  c38.4,3.2,46.3-31.6,46.3-31.6s-13.7-15.5-12.2-54.3l-53.8-61.3L849.2,1014.1z"></path>
<g class="st55">
	<defs>
		<path id="SVGID_49_" class="st55" d="M849.2,1014.1c1.3,17.8,1.3,35.7,0,53.4c-2.3,27.9-5.4,33.9-5.4,33.9s13.9,32.5,47.8,35.3    c38.4,3.2,46.3-31.6,46.3-31.6s-13.7-15.5-12.2-54.3l-53.8-61.3L849.2,1014.1z"></path>
	</defs>
	<clipPath id="SVGID_50_">
		<use xlink:href="#SVGID_49_" style="overflow:visible;"></use>
	</clipPath>
	<g class="st56">
		<g class="st26">
			<path class="st27" d="M843.8,1030.3c0,0,63.5,17.4,68.1,58.7l4.6,41.4l14.5-13.2l19.7-50.8l-36-53.4l-63.6-23.4l-7.4,19V1030.3z"></path>
		</g>
	</g>
</g>
<path class="st24" d="M1006,903.8c0,0,0,68.9-7.7,99.1c-7.7,30.1-28.6,56.2-62.8,55.7c-35.5-0.6-68.9-23.4-85.8-79.6  c0,0-30.4,1.8-31.9-36.8s31.4-37.8,35.5-32.2s3.6,17.6,3.6,17.6s97-27.1,115.9-77.1C972.9,850.4,985.1,900.2,1006,903.8z"></path>
<g>
	<defs>
		<path id="SVGID_51_" d="M1006,903.8c0,0,0,68.9-7.7,99.1c-7.7,30.1-28.6,56.2-62.8,55.7c-35.5-0.6-68.9-23.4-85.8-79.6    c0,0-30.4,1.8-31.9-36.8s31.4-37.8,35.5-32.2s3.6,17.6,3.6,17.6s97-27.1,115.9-77.1C972.9,850.4,985.1,900.2,1006,903.8z"></path>
	</defs>
	<clipPath id="SVGID_52_">
		<use xlink:href="#SVGID_51_" style="overflow:visible;"></use>
	</clipPath>
	<path class="st57" d="M865,920.3l-8,7.2c0,0,74.7,4.8,114.5-48.1c0,0,26.8,52.1,51.8,43.4l-3.8-35.2l-45.2-64.8L865,920.3z"></path>
</g>
<path class="st58" d="M1084.2,1693.5c63-15.7,121.5-53.1,177.7-20.8s31.3,123.6,11.9,129.4s-165.8,34.7-165.8,34.7s-21.1,4.1-22.2,0  S1084.2,1693.5,1084.2,1693.5z"></path>
<path class="st24" d="M1141.1,1600.9l21.3-2.8c0,0,43.3-1.8,128.9,5c85.6,6.8,101.6,38,104.9,127.7s-9.2,411.2-4.4,430.4  s17.5,27.1,65.4,45.6c50.2,19.4,93.2,29.9,95.3,52.6c3.3,36.3-26.8,57.8-81,55.7s-147.7-12.4-153.2-27.6s-3.2-62.7,1.8-94.3  s-14.2-136-27.9-200.5s-33.8-149.8-22.8-200.2s-155.3-9.2-155.3-9.2l-38.5,5.7l-3.2-151.1L1141.1,1600.9z"></path>
<g>
	<defs>
		<path id="SVGID_53_" d="M1141.1,1600.9l21.3-2.8c0,0,43.3-1.8,128.9,5c85.6,6.8,101.6,38,104.9,127.7s-9.2,411.2-4.4,430.4    s17.5,27.1,65.4,45.6c50.2,19.4,93.2,29.9,95.3,52.6c3.3,36.3-26.8,57.8-81,55.7s-147.7-12.4-153.2-27.6s-3.2-62.7,1.8-94.3    s-14.2-136-27.9-200.5s-33.8-149.8-22.8-200.2s-155.3-9.2-155.3-9.2l-38.5,5.7l-3.2-151.1L1141.1,1600.9z"></path>
	</defs>
	<clipPath id="SVGID_54_">
		<use xlink:href="#SVGID_53_" style="overflow:visible;"></use>
	</clipPath>
	<g class="st59">
		<path class="st60" d="M1318.6,2204.6c0,0,5.5,11,44,3.1s49.8-25.6,49.8-25.6s-8.1-67.4-7.9-70.5s-16.8,13.4-44.3,15.6    c-21.4,1.7-50.1-5.8-50.1-5.8L1318.6,2204.6z"></path>
		<g class="st55">
			<path class="st27" d="M1116.4,1640c0,0,4.8,22,67.3,17.8s112.6-9.6,122.9,37.8s2.8,169.6,14.4,272s-8.6,212.9-8.6,212.9     l-130.2-319.2l18.5-38.6l-149,14.4l15.1-80.4L1116.4,1640z"></path>
		</g>
		<path class="st61" d="M1297.7,2174.6c0,0,56.3,39.1,111.3-10.3l4.1,11.4l118.6,24l95.7,51.3l-55.9,109l-150.6-15.6    c0,0-82.4-7.8-84.2-8.7s-50.1-34.8-50.1-34.8s0.7-67.3,2-76S1297.7,2174.6,1297.7,2174.6z"></path>
		<g>
			<defs>
				<path id="SVGID_55_" d="M1297.7,2174.6c0,0,56.3,39.1,111.3-10.3l4.1,11.4l118.6,24l95.7,51.3l-55.9,109l-150.6-15.6      c0,0-82.4-7.8-84.2-8.7s-50.1-34.8-50.1-34.8s0.7-67.3,2-76S1297.7,2174.6,1297.7,2174.6z"></path>
			</defs>
			<use xlink:href="#SVGID_55_" style="overflow:visible;fill:#192126;"></use>
			<clipPath id="SVGID_56_">
				<use xlink:href="#SVGID_55_" style="overflow:visible;"></use>
			</clipPath>
			<g class="st62">
				<path class="st23" d="M1359.7,2113c0,2.1-7.6,76.2,13,90c20.6,13.8,114.7,43.4,114.7,43.4l39.1-24.9l-39.8-54.2      c0,0-63.2-58.4-67.3-66.6s-37.1-12.4-37.8-10.3S1359.7,2113,1359.7,2113z"></path>
				<path class="st23" d="M1460.9,2327.8c0,0-4.9-85.2,43-117.5l97.7,44.9l-26.5,48.6l-85.5,7.9L1460.9,2327.8z"></path>
			</g>
		</g>
	</g>
</g>
<path class="st24" d="M1226,1680.7c46.3,4.2,53.5,63.3,34.8,143.2c-18.8,80-71.6,235.7-96.6,296.9s-43.1,168-41,176.8  s99.7,47.5,121,63.8s9.7,74.2-70.5,71.4s-184-20.9-179.9-48.7s25-81.6,38-103.8s53.3-299.8,69.1-378S1147.7,1673.5,1226,1680.7z"></path>
<g>
	<defs>
		<path id="SVGID_57_" d="M1226,1680.7c46.3,4.2,53.5,63.3,34.8,143.2c-18.8,80-71.6,235.7-96.6,296.9s-43.1,168-41,176.8    s99.7,47.5,121,63.8s9.7,74.2-70.5,71.4s-184-20.9-179.9-48.7s25-81.6,38-103.8s53.3-299.8,69.1-378S1147.7,1673.5,1226,1680.7z"></path>
	</defs>
	<clipPath id="SVGID_58_">
		<use xlink:href="#SVGID_57_" style="overflow:visible;"></use>
	</clipPath>
	<g class="st63">
		<path class="st60" d="M1041.9,2210.7c0,0,75.1,33.4,109.9,16l-19.7,68.8l-8.8,10.3l-48,16.1c0,0-64.4-30-64.7-34.1    S1041.9,2210.7,1041.9,2210.7z"></path>
		<path class="st23" d="M1025.1,2274.3c0,0,46.7,59.6,98,23.3l0,0l118.3,31.2l62.2,91.8l-58.9,29.7l-171.5,9.3    c0,0-134-43.1-134-44.5s1.9-28.7,5.1-37.1S1025.1,2274.3,1025.1,2274.3z"></path>
	</g>
</g>
<path class="st8" d="M820.3,1464.9c0,0,3.1-3.6-9.2,18.4s-58.2,104.2-55.7,176.2s20.2,146,100.6,177.4c80.4,31.5,192.3,18.4,252,0  c0,0-19.2-43.7-9.2-125.6s61.3-114.1,61.3-114.1s-55.8-8.4-87.7-42.4c-20.1-21.4-20.2-67.1-23.9-82.7l-20.2-7.4L820.3,1464.9z"></path>
<g>
	<defs>
		<path id="SVGID_59_" d="M820.3,1464.9c0,0,3.1-3.6-9.2,18.4s-58.2,104.2-55.7,176.2s20.2,146,100.6,177.4    c80.4,31.5,192.3,18.4,252,0c0,0-19.2-43.7-9.2-125.6s61.3-114.1,61.3-114.1s-55.8-8.4-87.7-42.4c-20.1-21.4-20.2-67.1-23.9-82.7    l-20.2-7.4L820.3,1464.9z"></path>
	</defs>
	<clipPath id="SVGID_60_">
		<use xlink:href="#SVGID_59_" style="overflow:visible;"></use>
	</clipPath>
	<g class="st64">
		<path class="st65" d="M917.3,1502.7c0,0-80.7,106.3-14.3,177.8s254.3,81.2,254.3,81.2l56.2-121.2l35.7-94l-189.4-107.2    l-151.7,25.4L917.3,1502.7z"></path>
	</g>
</g>
<path class="st24" d="M1131.8,1319.1c0,0,39.3,77.7,48.5,70.9s120-168.2,130.2-189.1s95.5-85.3,133.3-67.4s20.9,36.8-13.8,64.3  s-76.6,43.9-76.6,43.9s-48,88.3-80.7,144.5s-64.8,108.8-96,108.8c-30.6,0-104.2-126.2-104.2-126.2L1131.8,1319.1z"></path>
<g>
	<defs>
		<path id="SVGID_61_" d="M1131.8,1319.1c0,0,39.3,77.7,48.5,70.9s120-168.2,130.2-189.1s95.5-85.3,133.3-67.4s20.9,36.8-13.8,64.3    s-76.6,43.9-76.6,43.9s-48,88.3-80.7,144.5s-64.8,108.8-96,108.8c-30.6,0-104.2-126.2-104.2-126.2L1131.8,1319.1z"></path>
	</defs>
	<clipPath id="SVGID_62_">
		<use xlink:href="#SVGID_61_" style="overflow:visible;"></use>
	</clipPath>
	<g class="st66">
		<path class="st67" d="M1111,1319.9c0.3,5.8-4.8,69.4,35.1,115.1s69.4,34.7,95,11.6l9.9,46.6l-73.5,27.9l-40.8-11.2    c0,0-69.8-110.3-69.8-111.3s-12.2-36.7-12.2-36.7L1111,1319.9z"></path>
	</g>
</g>
<path class="st68" d="M1024.2,1117.3c12.6-1.7,31,14.3,46.6,42.9s75.2,158.1,75.2,158.1s-23.3,43.4-60.9,55.2s-43.2,7.1-43.2,7.1  L1024.2,1117.3z"></path>
<path class="st18" d="M843.8,1101.3l-7.8,2.9c0,0-49.1,11.4-70.5,21.1s-12.8,81.2,13.2,184.6s40.6,121.8,32.4,173.4  c0,0,53.4,36.5,136.1,27.3s101.4-38.5,101.4-38.5s8.9-51.8,9.7-90.1s19.1-50.8,22.8-86.6s-24.5-87.5-28.9-111s-9.7-56-25.2-69.4  c-10.2-8.8-80.7-16.2-88.4-12.1c-10,5.3-11,25.1-32.4,28.8S856,1119.7,843.8,1101.3z"></path>
<g>
	<defs>
		<path id="SVGID_63_" d="M843.8,1101.3l-7.8,2.9c0,0-49.1,11.4-70.5,21.1s-12.8,81.2,13.2,184.6s40.6,121.8,32.4,173.4    c0,0,53.4,36.5,136.1,27.3s101.4-38.5,101.4-38.5s8.9-51.8,9.7-90.1s19.1-50.8,22.8-86.6s-24.5-87.5-28.9-111s-9.7-56-25.2-69.4    c-10.2-8.8-80.7-16.2-88.4-12.1c-10,5.3-11,25.1-32.4,28.8S856,1119.7,843.8,1101.3z"></path>
	</defs>
	<clipPath id="SVGID_64_">
		<use xlink:href="#SVGID_63_" style="overflow:visible;"></use>
	</clipPath>
</g>
<path class="st24" d="M675.3,1353.6c0,0-32.9,126.4-38.3,165.4s22.6,45.9,75.8,56.7s260,36.3,260,36.3s150.8,17,156.2-10.3  c2.9-14.3-48.3-38.8-76.9-41.2s-79,6.1-79,6.1s-236.4-55.7-239.2-69.6s29.1-123.4,29.1-123.4L675.3,1353.6z"></path>
<path class="st69" d="M796.8,1122.2c29.2,9.1,37.3,62.8,17.4,129.7s-48,136.3-48,136.3s-33.2,15.3-71.5,0s-37.8-51.6-37.8-51.6  s31.2-83.7,50.6-130.2S758.3,1110.2,796.8,1122.2z"></path>
<g>
	<defs>
		<path id="SVGID_65_" d="M796.8,1122.2c29.2,9.1,37.3,62.8,17.4,129.7s-48,136.3-48,136.3s-33.2,15.3-71.5,0s-37.8-51.6-37.8-51.6    s31.2-83.7,50.6-130.2S758.3,1110.2,796.8,1122.2z"></path>
	</defs>
	<use xlink:href="#SVGID_65_" style="overflow:visible;fill:#33658A;"></use>
	<clipPath id="SVGID_66_">
		<use xlink:href="#SVGID_65_" style="overflow:visible;"></use>
	</clipPath>
	<g class="st70">
		<g class="st71">
			<path class="st18" d="M825.2,1122.3c0,0-50.6,152.7-107,221.1s-61.3,78.6-61.3,78.6s92.7,43.8,98.4,41.3s95.6-63.8,95.6-63.8     L825.2,1122.3z"></path>
		</g>
	</g>
</g>
<ellipse transform="matrix(0.9239 -0.3827 0.3827 0.9239 -84.6389 1038.8225)" class="st18" cx="2568.9" cy="732.2" rx="44.7" ry="44.7"></ellipse>
<ellipse transform="matrix(0.7071 -0.7071 0.7071 0.7071 250.0131 2235.2524)" class="st72" cx="2823.2" cy="815.8" rx="76" ry="76"></ellipse>
<g>
	<rect x="2746.6" y="527.1" class="st8" width="49.4" height="49.4"></rect>
</g>
<g>
	
		<rect x="2640.1" y="960.9" transform="matrix(0.8093 -0.5874 0.5874 0.8093 -73.7016 1758.8201)" class="st73" width="64" height="64"></rect>
</g>
<circle class="st18" cx="242.6" cy="888.5" r="44.7"></circle>
<circle class="st72" cx="363.3" cy="1084.1" r="76"></circle>
<g>
	
		<rect x="348.9" y="661.1" transform="matrix(0.8093 -0.5874 0.5874 0.8093 -333.785 354.5292)" class="st73" width="60.6" height="60.6"></rect>
</g>
</svg>