<svg xmlns="http://www.w3.org/2000/svg" xmlns:xlink="http://www.w3.org/1999/xlink" id="Layer_1" x="0px" y="0px" viewBox="0 0 5000 5000" style="enable-background:new 0 0 5000 5000;" xml:space="preserve">
<style type="text/css">
	.st0{fill:#EEEEEE;}
	.st1{fill:#D1D1D1;}
	.st2{fill:#6A889B;}
	.st3{fill:#FAC2AE;}
	.st4{fill:#253B44;}
	.st5{fill:#192126;}
	.st6{fill:#192126;stroke:#192126;stroke-width:0.97;stroke-linecap:round;stroke-linejoin:round;}
	.st7{fill:#232666;}
	.st8{fill:#285972;}
	.st9{fill:#2D4754;}
	.st10{fill:#33658A;}
	.st11{fill:none;stroke:#33658A;stroke-width:8;stroke-miterlimit:10;}
	.st12{fill:#E4EFF9;}
	.st13{fill:#FFFFFF;}
	.st14{fill:#F6A538;}
	.st15{fill:#F78F20;}
	.st16{fill:#2D2E75;}
	.st17{fill:none;stroke:#33658A;stroke-width:4;stroke-miterlimit:10;}
	.st18{fill:#282E5B;}
	.st19{fill:#F1A080;}
	.st20{fill:#E07C22;}
	.st21{fill:#725A38;}
	.st22{fill:#074675;}
	.st23{fill:#034C8A;}
	.st24{fill:#BEC6C4;}
	.st25{fill:#5787AA;}
	.st26{fill:#4E7A9B;}
	.st27{fill:#7996A5;}
	.st28{fill:#8C6F41;}
	.st29{fill:#FEFEFE;}
	.st30{fill:#3F788C;}
	.st31{fill:#033860;}
	.st32{fill:#6590B7;}
	.st33{fill:#346EC1;}
	.st34{fill:#FFFFFF;stroke:#F78F20;stroke-width:8;stroke-miterlimit:10;}
	.st35{fill:#FFFFFF;stroke:#33658A;stroke-width:8;stroke-miterlimit:10;}
</style>
<ellipse class="st0" cx="1990.4" cy="4060" rx="379.7" ry="126.9"></ellipse>
<ellipse class="st0" cx="3175.9" cy="3680.8" rx="542.2" ry="153.4"></ellipse>
<rect x="775.1" y="3467.4" class="st1" width="3581.5" height="27.6"></rect>
<path class="st0" d="M827.8,3467.4h3458.8c0,0,508-1402.3-43.4-1696.1c-492.9-262.7-312.4-1040.9-1005.9-951  s-735.9,353.2-1433.3,298.2c-1036.9-81.7-1674.2,641.7-1068.7,1641C888.2,3011.9,900.2,3267.9,827.8,3467.4z"></path>
<path class="st2" d="M3447.1,2641.9h163c6.1,0,11,4.9,11,11v199.7c0,6.1-4.9,11-11,11h-163c-6.1,0-11-4.9-11-11v-199.7  C3436.1,2646.9,3441,2641.9,3447.1,2641.9z"></path>
<path class="st3" d="M2945.8,3609.1l-23.2,76.9l96.6,3.6c0,0-30.2-20.3,0-106.1S2945.8,3609.1,2945.8,3609.1z"></path>
<polygon class="st3" points="3182,3481 3212.1,3544.5 3252.3,3512.8 3217.1,3415.9 "></polygon>
<path class="st4" d="M3087.5,3027.6c0,0-100.3,290.5-100.3,320.2s-64.6,272.3-64.6,272.3s52.3,14.5,90.8,9.7l147.7-362.9  l323.1-300.7C3484.2,2966.2,3493.1,2857.6,3087.5,3027.6z"></path>
<path class="st2" d="M3613.2,3198.8h-380.4c-1.1,0-2-0.9-2-2v-62c0-1.1,0.9-2,2-2h380.4c1.1,0,2,0.9,2,2v62  C3615.2,3197.9,3614.3,3198.8,3613.2,3198.8z"></path>
<rect x="3408" y="3198.8" class="st5" width="29.9" height="434.3"></rect>
<rect x="3384.1" y="3423.7" class="st6" width="77.8" height="131.9"></rect>
<path class="st7" d="M3161.2,3646c34.8-20.8,131.5-72.7,267.3-71.3c129.2,1.4,221,50.2,256.2,71.3v-21.9  c-37-21.2-128.6-67.3-256.2-68.6c-134.1-1.4-230.6,47.6-267.3,68.6V3646z"></path>
<path class="st6" d="M3651.2,3646c0-16.6,15-30.1,33.5-30.1s33.5,13.5,33.5,30.1s-15,30.1-33.5,30.1S3651.2,3662.7,3651.2,3646z"></path>
<path class="st6" d="M3127.7,3646c0-16.6,15-30.1,33.5-30.1s33.5,13.5,33.5,30.1s-15,30.1-33.5,30.1S3127.7,3662.7,3127.7,3646z"></path>
<path class="st6" d="M3391.3,3646c0-15.7,14.2-28.5,31.6-28.5s31.6,12.7,31.6,28.5s-14.1,28.4-31.6,28.4S3391.3,3661.8,3391.3,3646z  "></path>
<path class="st8" d="M3190.8,3509.4L3190.8,3509.4l-0.2,0.4c-3.5,5.6-47.2,75.2-77.2,78.2c-31.3,3.1-22,62.6-22,62.6l224.2-82.7  c0,0,24.4-1.7-26.3-56.2c-8.1-8.8-18.1-18.9-30.6-30.6l0,0C3258.7,3481,3219.4,3513.6,3190.8,3509.4z"></path>
<path class="st9" d="M3121.8,3052.8c0,0-147.1,32.7-98.6,142.9s154.8,310.5,154.8,310.5l61.4-28.7c0,0-31.2-266.8-78-303.4  l279.1-25.2c94.5-8.5,156.4-77.4,130.6-145.3l-22.3-58.5L3121.8,3052.8z"></path>
<path class="st5" d="M3367.9,3057.4c0,0,157.2,1.3,209-41.1l-11-26.2l-204.6,33.6L3367.9,3057.4z"></path>
<path class="st10" d="M3268.9,2553.1c0,0-62.8,2.6-83.6,11.9c-21.9,9.8-128.5,229.5-128.5,229.5L3309,2870l-59.6,139.6  c0,0,89.7,71.3,268,10.1c0,0,57.9-14.5,65.8-26.7s-29-89.6-22.3-138.4s-44.1-281-76.6-301.4s-117.2-20.4-117.2-20.4  S3270,2541.2,3268.9,2553.1z"></path>
<path class="st5" d="M3372.1,2689.3c0,0-40.2,119.8-104.9,143.2l78.4,12.3l44.9-129.3L3372.1,2689.3z"></path>
<path class="st5" d="M3489,2684.3c0,0,10.3,206.1-87.5,236.2s-23.4-100.3-23.4-100.3L3489,2684.3z"></path>
<path class="st11" d="M3586.2,2440H1534.9c-20.4,0-36.9-16.5-36.9-36.9V1066.3c0-20.4,16.5-36.9,36.9-36.9h2051.3  c20.4,0,36.9,16.5,36.9,36.9v1336.8C3623.2,2423.5,3606.6,2440,3586.2,2440z"></path>
<circle class="st12" cx="2227.4" cy="1440.2" r="227.3"></circle>
<rect x="2574.4" y="1208.8" class="st10" width="945.3" height="974.6"></rect>
<rect x="2526.5" y="1166.7" class="st13" width="945.3" height="969.8"></rect>
<path class="st14" d="M2667.7,2032.3H3433c0,0-45.2-118.3-81-103.4s-70.1-29.8-99.7-113.4s-55.2-9.9-68.3,31.8  s-50.1,111.4-82.8,21.9s-58.1-196.8-98.6-75.6s-71.7-17.9-71.7-17.9s-21.8-207.3-130.1,6c-68.5,135-77.1-223.7-77.1-223.7  s4.7-207.3-56.1-158.1V2032.3z"></path>
<rect x="2747.8" y="1597.2" class="st15" width="48.7" height="430.2"></rect>
<rect x="2903.1" y="1773.3" class="st15" width="48.7" height="254"></rect>
<rect x="3050.3" y="1597.2" class="st15" width="48.7" height="430.2"></rect>
<rect x="3205.6" y="1773.3" class="st15" width="48.7" height="254"></rect>
<polygon class="st10" points="3417.7,2078.9 2607.9,2078.9 2607.9,1544.3 2618.1,1544.3 2618.1,2068.7 3417.7,2068.7 "></polygon>
<g>
	<rect x="1759.7" y="1359.3" class="st15" width="140.8" height="14.9"></rect>
	<rect x="1759.7" y="1392.3" class="st15" width="140.8" height="14.9"></rect>
	<rect x="1823.6" y="1425.3" class="st15" width="76.8" height="14.9"></rect>
</g>
<g>
	<rect x="2821.7" y="2219.9" class="st2" width="260.2" height="14.9"></rect>
	<rect x="2821.7" y="2252.9" class="st2" width="260.2" height="14.9"></rect>
	<rect x="2821.7" y="2285.8" class="st2" width="142" height="14.9"></rect>
</g>
<rect x="2289.1" y="1577.4" class="st16" width="5.6" height="3.8"></rect>
<path class="st16" d="M2306.3,1577.4h11.7v3.8h-11.6L2306.3,1577.4z M2329.6,1577.4h11.6v3.8h-11.6V1577.4z M2352.9,1577.4h11.6v3.8  h-11.6L2352.9,1577.4z M2376.2,1577.4h11.6v3.8h-11.6V1577.4z M2399.5,1577.4h11.6v3.8h-11.6V1577.4z M2422.7,1577.4h11.6v3.8h-11.6  V1577.4z"></path>
<polygon class="st16" points="2446,1577.4 2453.7,1577.4 2453.7,1584.3 2449.5,1584.3 2449.5,1581.2 2446,1581.2 "></polygon>
<path class="st16" d="M2449.5,1594.5h4.2v10.2h-4.2V1594.5z M2449.5,1614.9h4.2v10.2h-4.2V1614.9z M2449.5,1635.3h4.2v10.2h-4.2  V1635.3z M2449.5,1655.6h4.2v10.2h-4.2V1655.6z M2449.5,1676h4.2v10.2h-4.2V1676z M2449.5,1696.4h4.2v10.2h-4.2V1696.4z   M2449.5,1716.8h4.2v10.2h-4.2V1716.8z M2449.5,1737.1h4.2v10.2h-4.2V1737.1z"></path>
<rect x="2449.5" y="1757.5" class="st16" width="4.2" height="5.1"></rect>
<ellipse class="st16" cx="2451.6" cy="1764.7" rx="18.3" ry="15.5"></ellipse>
<ellipse class="st16" cx="2289.1" cy="1581.4" rx="18.3" ry="15.5"></ellipse>
<polygon class="st16" points="2588.2,1571.9 2639.1,1571.9 2613.7,1521.8 "></polygon>
<polygon class="st16" points="3406.4,2047.4 3406.4,2098.4 3456.6,2072.9 "></polygon>
<polygon class="st16" points="3354.8,1462.5 3394.6,1494.3 3406,1439.2 "></polygon>
<path class="st15" d="M2170.4,1438.6c0,0.3,0,0.6,0,0.8l-131.9-37.4c14.1-88.2,90.5-155.6,182.6-155.6v133.7  C2192,1384.3,2170.4,1409.2,2170.4,1438.6z"></path>
<path class="st14" d="M2036.6,1420.3l141.7,40.2c3.8,14.8,13.3,27.5,26.3,35.5l-72,117.1C2062.7,1576,2024.1,1498.5,2036.6,1420.3  L2036.6,1420.3z"></path>
<path class="st2" d="M2237.8,1387.5v-141.2c102.1,0,185,82.8,185,185c0,4.5-0.2,9-0.6,13.5l-136,6.6c0.2-1.9,0.3-3.8,0.3-5.8  C2286.5,1417,2266,1392.5,2237.8,1387.5z"></path>
<path class="st10" d="M2280.9,1470.6l141.8-6.9c-6.9,95.8-86.8,171.5-184.4,171.5c-30.2,0-60-7.4-86.7-21.6l67.4-109.6  C2244.8,1508,2270.1,1494.3,2280.9,1470.6L2280.9,1470.6z"></path>
<polygon class="st10" points="2956.1,1604.7 2762.2,1459.4 2679.1,1504.4 2675.7,1498.2 2762.9,1450.9 2955,1594.9 3056.8,1472.9   3253.6,1595.2 3386.8,1459 3391.9,1464 3254.6,1604.3 3058.3,1482.3 "></polygon>
<circle class="st15" cx="2762" cy="1457.7" r="17.4"></circle>
<circle class="st15" cx="3057" cy="1480.2" r="17.4"></circle>
<circle class="st15" cx="3252.6" cy="1599.8" r="17.4"></circle>
<g>
	<rect x="2036.5" y="1743.3" class="st2" width="355.4" height="14.9"></rect>
	<rect x="2036.5" y="1776.3" class="st2" width="355.4" height="14.9"></rect>
	<rect x="2197.9" y="1809.3" class="st2" width="193.9" height="14.9"></rect>
	<rect x="2036.5" y="1840.1" class="st2" width="355.4" height="14.9"></rect>
	<rect x="2036.5" y="1873.1" class="st2" width="355.4" height="14.9"></rect>
	<rect x="2197.9" y="1906" class="st2" width="193.9" height="14.9"></rect>
	<rect x="2036.5" y="1936.8" class="st10" width="355.4" height="14.9"></rect>
	<rect x="2036.5" y="1969.8" class="st10" width="355.4" height="14.9"></rect>
	<rect x="2197.9" y="2002.8" class="st10" width="193.9" height="14.9"></rect>
	<rect x="2036.5" y="2033.6" class="st10" width="355.4" height="14.9"></rect>
	<rect x="2036.5" y="2066.5" class="st10" width="355.4" height="14.9"></rect>
	<rect x="2197.9" y="2099.5" class="st10" width="193.9" height="14.9"></rect>
</g>
<g>
	<rect x="1817.7" y="1495.3" class="st2" width="88.8" height="23"></rect>
	<rect x="1817.7" y="1531.4" class="st2" width="88.8" height="23"></rect>
	<rect x="1817.7" y="1567.4" class="st2" width="88.8" height="23"></rect>
	<rect x="1817.7" y="1603.5" class="st10" width="88.8" height="23"></rect>
	<rect x="1817.7" y="1639.5" class="st10" width="88.8" height="23"></rect>
	<rect x="1817.7" y="1675.6" class="st10" width="88.8" height="23"></rect>
	<rect x="1817.7" y="1711.7" class="st10" width="88.8" height="23"></rect>
</g>
<path class="st17" d="M3683.2,2534.5H1446.7c-20.4,0-36.9-16.5-36.9-36.9V971.8c0-20.4,16.5-36.9,36.9-36.9h2236.5  c20.4,0,36.9,16.5,36.9,36.9v1525.8C3720.1,2518,3703.6,2534.5,3683.2,2534.5z"></path>
<polygon class="st18" points="3165.5,2833.9 2950.6,2905.2 2716.4,2871.8 2718.7,2861.7 2964.9,2803.8 "></polygon>
<path class="st5" d="M2331,3234l64.9,832.4c0,0,11.3,21.3,32,5l79-868.4L2331,3234z"></path>
<path class="st5" d="M1650.6,3074.1l64.9,832.4c0,0,11.3,21.3,32,5l79-868.4L1650.6,3074.1z"></path>
<path class="st5" d="M2670.6,2775l64.9,832.4c0,0,11.3,21.3,32,5l79-868.4L2670.6,2775z"></path>
<path class="st5" d="M3206.7,2927.4l64.9,832.4c0,0,11.3,21.3,32,5l79-868.4L3206.7,2927.4z"></path>
<polygon class="st15" points="1577.6,3043 2431.6,3291.3 3436.1,2870 2796.5,2727.9 "></polygon>
<path class="st3" d="M3149,2882.1c0,0-40,8.9-40,31.7s32.9,26.8,32.9,26.8l55.7-22.3c0,0,6.7-21.7,0-30.6S3149,2882.1,3149,2882.1z"></path>
<path class="st19" d="M3168.1,2884.4c0,0,22.7,20.2,6.1,43.2l34.4-14.1C3208.7,2913.5,3184.4,2872.2,3168.1,2884.4z"></path>
<polygon class="st20" points="2716.4,2882.6 2958,2940.6 3165.5,2848.1 "></polygon>
<polygon class="st10" points="3165.5,2833.9 2950.6,2905.2 2716.4,2871.8 2718.7,2861.7 2964.9,2803.8 "></polygon>
<polygon class="st10" points="3090.1,2727.9 2897.3,2770.1 2922.6,2855.2 3129.1,2801.6 "></polygon>
<path class="st5" d="M2948.2,2822c0,0,169.8-15.2,206.6-58.9l-25.7,38.6l-188.1,46.4L2948.2,2822z"></path>
<path class="st21" d="M3185.1,2222.3c0,0-2.7-95.1,77.5-70.6L3185.1,2222.3z"></path>
<polygon class="st20" points="2367.4,2993.7 2683.1,2975.4 2505.6,3193.1 2200.8,3150.2 "></polygon>
<polygon class="st14" points="1577.6,3043 1577.6,3101.4 2433.5,3362.8 2433.5,3291.3 "></polygon>
<polygon class="st20" points="2433.5,3291.3 3436.1,2870 3436.1,2927.8 2433.5,3362.8 "></polygon>
<path class="st3" d="M1907.5,2264.9c0,0,71.9-33.4,130.4,110.3c0,0,8.9,12.1,17.1,14.3s-13.4,20.1-13.4,20.1s13.4,41.6-8.9,62.4  s-85.4,23.8-79.5,56.4s14.1,76.5,14.1,76.5s-78.7,24.5-83.2-16.4c-2.7-23.7-3.9-47.5-3.7-71.3  C1880.4,2517.3,1738.5,2311.2,1907.5,2264.9z"></path>
<path class="st19" d="M1955.2,2285.5c0,0-21.2,51.7-3.9,82.9s-19.5,72.9-19.5,72.9s-2.1,11.2,9,15.1s-60.3,60.9-60.3,60.9  l26.9-129.8C1907.3,2387.6,1932.9,2250.5,1955.2,2285.5z"></path>
<path class="st22" d="M1964.4,2272.9c0,0-39.4,43.1-17.9,92.1s-66.1,152.3-66.1,152.3s-159.1-63.4-67.6-202.1  C1887.8,2201.6,1964.4,2272.9,1964.4,2272.9z"></path>
<path class="st23" d="M1826.6,2482.9c0,0-40.5,4.7-25.7,41.1s71.3,27.5,86.2,0S1826.6,2482.9,1826.6,2482.9z"></path>
<path class="st3" d="M1781.3,3441.5c0,0,6.2,85.9-6.4,116.9s-69.8,69.9-31.2,360.5c-10.2,7.5-19.9,15.7-29,24.5  c-17.7,17.5,86.9,140.5,86.9,140.5l42.3-8.9c0,0-73.6-91.9-50.5-187.1s33.4-219.2,54.2-253.8s46.1-113.6,63.1-181.6  S1781.3,3441.5,1781.3,3441.5z"></path>
<path class="st19" d="M1782.2,3457.7v33.3c0,0,57.1,34.2,112.5,20.5l12.5-46.6L1782.2,3457.7z"></path>
<path class="st3" d="M1986.2,3453c0,0,26.6,82.2,21.7,115.2s-51.2,83.7,55.8,357.7c0,0,2.4,25.4-22.3,30.4s103.5,141.9,103.5,141.9  l36.4-9c0,0-76.3-106.9-76.6-204.6s-19.8-220.7-7.9-259.1s21-127.6,21.3-197.6S1986.2,3453,1986.2,3453z"></path>
<path class="st19" d="M1990.4,3466.1l9,32c0,0,67.5,6.3,117.9-36.1l2.6-59.9L1990.4,3466.1z"></path>
<path class="st18" d="M1733.3,3943.8c1.6,6.1,3.1,12.2,5.6,18.1c6.9,16.4,17.7,31.3,27.1,46.2c10.2,16.1,19.5,32.8,29.9,48.8  c5.3,8.1,11.2,14.5,21,15.9c4.5,0.6,9.1,0.5,13.5-0.3c2.7-0.5,5.5-2.4,8.2-2.6c2.3-0.2,4.5,1.3,6.4,2.4c7.3,4.1,14.1,9.4,21.4,13.6  c6.4,3.7,13.3,6,19.8,9.2c2,1,4.9,2.3,5.7,4.8c1,3.7-2.7,7.5-5.4,9.1c-8.3,4.8-20.8,2.8-29.9,2.9c-19.2,0.2-39.2,2-58.4-0.5  c-6.3-0.8-12.7-2.3-16.9-7.6c-7.8-9.9-10.5-24.7-14.9-36.2c-3.8-9.7-8.2-19.8-15.5-27.4c-5.3-5.4-11.8-9.5-18.9-12.1  c-2.4-0.9-3.6-1.7-4.8,0.9c-1.9,4.3-0.3,11.6-0.3,16.2c-0.1,9.4-0.4,56.5-0.4,59.9c0,1.4,0.6,4.8,0,6c-0.8,1.5,0.3,0.6-2.2,1.1  c-1.2,0.2-7.2,0.8-8.2,0c-1.6-1.2-0.8-10.7-0.9-13.4c-0.3-9.3-0.9-18.7-1.6-28c-1.4-17.9-2.5-36.4-7-53.8  c-3.7-14.3-7.9-26.4-7.2-41.5c0.4-8,1.6-16.4,5.3-23.5c5.4-10.2,16.2-18,24.4-25.5L1733.3,3943.8z"></path>
<path class="st18" d="M2064.2,3950.3c1.6,6.1,3.1,12.2,5.6,18.1c6.9,16.4,17.6,31.3,27.1,46.2c10.2,16.1,19.5,32.8,29.9,48.8  c5.3,8.1,11.2,14.5,21,15.9c4.5,0.6,9.1,0.5,13.5-0.3c2.7-0.5,5.5-2.4,8.2-2.6c2.3-0.2,4.5,1.3,6.4,2.4c7.4,4.1,14.1,9.4,21.4,13.6  c6.4,3.7,13.2,6,19.8,9.2c2,1,4.9,2.3,5.7,4.8c1.1,3.7-2.7,7.5-5.4,9.1c-8.3,4.8-20.8,2.8-29.9,2.9c-19.2,0.2-39.2,2-58.4-0.5  c-6.3-0.8-12.7-2.3-16.9-7.6c-7.8-9.9-10.5-24.7-14.9-36.2c-3.8-9.8-8.2-19.8-15.5-27.4c-5.3-5.4-11.8-9.5-18.9-12.1  c-2.4-0.9-3.6-1.7-4.8,1c-1.9,4.3-0.3,11.6-0.3,16.2c-0.1,9.4-0.4,56.5-0.4,59.9c0,1.4,0.6,4.8,0,6c-0.9,1.5,0.3,0.6-2.2,1.1  c-1.2,0.2-7.2,0.8-8.2,0c-1.6-1.2-0.8-10.7-0.9-13.4c-0.3-9.3-0.9-18.7-1.6-28c-1.4-17.9-2.5-36.4-7-53.8  c-3.7-14.3-7.9-26.4-7.2-41.5c0.4-8,1.6-16.4,5.3-23.5c5.4-10.2,16.2-18,24.4-25.5L2064.2,3950.3z"></path>
<path class="st3" d="M3219,2168.6c0,0-50.1,49-42.3,115.9c0,0-7.8,26.2-31.8,37.3c0,0-16.7,13.4,20.6,21.2c0,0,15.2-3.9,14.6,22.3  s10.5,55.7,55.1,59.1s41.2,117,41.2,117s65.8,10,87.5-13.4c0,0-42.3-64.1-15.6-103.1s107.7-112.6,66.1-186.1  S3219,2168.6,3219,2168.6z"></path>
<path class="st19" d="M3341.9,2476.7c0,0-6.2,58.5-47.4,61.6l21.6,20.7l44.4-36.7C3360.4,2522.3,3344.4,2497.5,3341.9,2476.7z"></path>
<path class="st19" d="M3218.2,2179.5c0,0-13.4,85.8,90.8,99.7c0,0,15.9,11.4,7.1,53.1s33-110,33-110L3218.2,2179.5z"></path>
<path class="st8" d="M2929.3,3660.2L2929.3,3660.2l-0.4,0.3c-6.1,3.9-81.9,52.6-111.1,46.8c-30.4-6-52.1,48.6-52.1,48.6l249.2-9.8  c0,0,23.3,5.3,4.3-56.5c-3.1-9.9-7.2-21.5-12.7-35.2l0,0C3006.5,3654.4,2953.6,3671.9,2929.3,3660.2z"></path>
<path class="st3" d="M2222.6,2678.7c0,0,20.1,17.8,31.2-54.6s57.9-168.2,57.9-168.2s12.8-79.7,24.5-102.5s37.9-56.8,37.3-73  s20.6-2.8,12.3,15.6s-27.3,65.2-27.3,65.2s35.1,20.1,32.9,36.2s-13.1,50.6-51.3,65.2c0,0,15,95.8-10.6,184.4s-44,133.2-119.8,107  L2222.6,2678.7z"></path>
<path class="st19" d="M2238.1,2721.1c0,0,41.9,21.6,63.5,3.3c0,0-18.9,54.9-89.2,30.5L2238.1,2721.1z"></path>
<path class="st19" d="M1896.1,2540.6c0,0-2,57.9,67.1,42.4l4.1,22c0,0-80.4,1.1-82.2-11.2l-4.6-55.4L1896.1,2540.6z"></path>
<polygon class="st2" points="2735.6,2874.3 2967.5,2908.8 2923.2,2616.6 2691.2,2582.1 "></polygon>
<polygon class="st10" points="2716.2,2871.4 2948.2,2905.9 2903.8,2613.7 2671.9,2579.2 "></polygon>
<path class="st24" d="M2783.1,2744c-1.1-16,5.6-30.2,15-31.8s17.9,10,19,26s-5.6,30.2-15,31.8S2784.2,2760,2783.1,2744z"></path>
<polygon class="st8" points="2716.2,2871.4 2948.2,2905.9 2948.2,2918.3 2716.4,2882.6 "></polygon>
<polygon class="st8" points="3165.5,2833.9 3165.5,2848.1 2948.2,2918.3 2948.2,2905.9 "></polygon>
<path class="st2" d="M3275.2,2522.3l25.4,21l-14.5,42.5c-1.3,4-4.2,7.2-8,8.8c-4.1,1.6-9.9,1.9-16.5-3.9  C3241.2,2572.8,3246.8,2539.1,3275.2,2522.3z"></path>
<path class="st2" d="M3357,2516l-56.3,27.3c0,0-1.6,71.3,38.5,46.3s51.3-60.2,51.3-60.2S3362.6,2500.3,3357,2516z"></path>
<path class="st10" d="M3377,2658.6c0,0-21.2,143.8-37.9,154.9s-205,73.5-205,73.5s59.5-19.1,63.5,31.2c0,0,183.9-21.2,228.4-69.1  s58.2-108.1,58.2-108.1s25.8-146-46.3-151.5C3437.9,2589.6,3392.5,2571.3,3377,2658.6z"></path>
<polygon class="st25" points="2670.7,2761.6 2687.9,2771.2 2634.4,3017 2614.3,3009.4 "></polygon>
<polygon class="st2" points="2422.1,2754.7 2670.7,2761.6 2614.3,3009.4 2367.6,2975.1 "></polygon>
<polygon class="st10" points="2205.7,3107.8 2494.8,3149.9 2614.3,3009.4 2367.6,2975.1 "></polygon>
<polygon class="st26" points="2494.8,3149.9 2494.8,3178.1 2634.4,3017 2614.3,3009.4 "></polygon>
<polygon class="st8" points="2205.7,3107.8 2494.8,3149.9 2494.8,3178.1 2205.7,3132.7 "></polygon>
<polygon class="st27" points="2422.1,2754.7 2598.1,2759.6 2448.9,2986.4 2367.6,2975.1 "></polygon>
<path class="st28" d="M3219,2168.6c0,0-6.2,34.4,16.1,56.6s92.1,30.5,85.4,84.7c0,0-1.5,26.1-15.6,46.1c0,0,38.7-30.5,46.1-43.9  s34.1,20.9,5.9,43.9s-8.7,68.9-8.7,68.9s135-95.6,91.9-181.1c0,0,2.5-114.4-139.5-104C3300.6,2139.8,3232.6,2136.4,3219,2168.6z"></path>
<path class="st10" d="M1466.6,2208.1h180.6l98.5,64v-271.8c0-54.6-50.8-98.9-113.4-98.9h-165.7c-62.6,0-113.4,44.3-113.4,98.9v108.9  C1353.2,2163.8,1403.9,2208.1,1466.6,2208.1z"></path>
<path class="st29" d="M1638.5,2145.8c0-0.4,0-0.8-0.1-1.1c-5.4-10.7,3.4-15.9,8.7-22.5c0.9-1.1,2.1-1,3.3-0.9c1.7,0.2,3.3,0.5,5,0.6  c6.6,0.5,6.6,0.5,9.3-5.4c2.1-4.6,3.8-9.4,5-14.4c0.6-2.3,0.4-4.2-1.9-5.1c-8.1-3.1-9.2-9.4-9.4-17.1c-0.2-5.1,1.1-8.1,5.1-10.6  c1.2-0.8,2.2-1.9,3.4-2.7c1.4-0.9,1.9-2.6,1.2-4.1c-2.1-6.4-4.9-12.6-8.6-18.3c-1-1.6-2.4-2.3-4-1.6c-8.2,3.5-14,0.2-19.7-5.9  c-2.8-3-4.3-5.3-3.6-9.5c1.3-8.3,1-8.4-6.9-11.8c-4.1-1.7-8.4-3.1-12.7-4.2c-2.2-0.6-3.9-0.3-4.8,1.8c-3.1,6.7-7.8,9.6-15.7,9.4  c-5.7-0.1-9.6-0.7-13-5.7c-3.5-5.2-3.8-4.9-9.7-2.7c-4.6,1.8-9.1,4-13.4,6.4c-2.6,1.5-3.8,3.3-2.7,6.1c2.6,6.6,0.6,11.2-4.2,16.5  c-4.6,5.1-8.9,6.7-14.9,5.1c-3.6-1-5.3,0.6-6.7,3.6c-2.5,5.4-4.5,10.9-5.9,16.7c-0.5,2-0.3,3.8,1.7,4.5c8.3,3.2,9.7,9.6,9.7,17.7  c0,4.7-0.8,7.7-4.8,10c-1.2,0.7-2.2,1.9-3.4,2.7c-1.5,0.9-2.2,2.7-1.4,4.4c2,6.3,4.8,12.4,8.3,18.1c1.2,1.9,2.7,2.6,4.6,1.8  c7.6-3,12.7-0.2,18.6,5.1c5.1,4.6,4.7,8.9,3.8,14c-0.6,3.4,0.6,5.1,3.5,6.4c5.3,2.5,10.9,4.5,16.7,5.9c2.2,0.5,4,0.3,4.8-1.8  c3.3-8,9.4-9.2,17.4-9.7c6.2-0.4,8.3,2.7,11.2,6.3c3.6,4.5,3.6,4.4,8.9,2.5c5.2-1.9,10.2-4.3,14.9-7.3  C1637.7,2148.3,1639.1,2147.4,1638.5,2145.8z M1595.8,2047.8c21.2,0,37.3,16.1,37.3,37.4c0,21-16.1,37.2-37.1,37.2  c-21.2,0-37.5-16.2-37.5-37.2C1558.5,2063.9,1574.6,2047.8,1595.8,2047.8L1595.8,2047.8z"></path>
<path class="st29" d="M1516.6,2056.4c0-0.3,0-0.6-0.1-0.8c-4.1-8.1,2.6-12,6.6-16.9c0.7-0.7,1.6-0.9,2.5-0.7  c1.3,0.1,2.5,0.3,3.8,0.5c4.9,0.4,5,0.4,7-4.1c1.6-3.5,2.8-7.1,3.7-10.8c0.4-1.8,0.3-3.2-1.5-3.8c-6.1-2.3-6.9-7.1-7.1-12.9  c-0.1-3.8,0.8-6.1,3.8-8c0.9-0.6,1.7-1.4,2.6-2c1-0.7,1.4-2,0.9-3.1c-1.6-4.8-3.7-9.5-6.4-13.8c-0.8-1.2-1.8-1.7-3-1.2  c-6.2,2.6-10.5,0.2-14.8-4.4c-2.1-2.3-3.2-4-2.7-7.2c1-6.3,0.8-6.3-5.2-8.9c-3.1-1.3-6.3-2.3-9.6-3.1c-1.7-0.4-2.9-0.2-3.6,1.4  c-2.3,5-5.9,7.2-11.8,7.1c-4.3-0.1-7.2-0.5-9.7-4.3c-2.6-3.9-2.9-3.7-7.3-2c-3.4,1.4-6.8,3-10,4.8c-2,1.1-2.9,2.5-2,4.6  c1.9,4.9,0.4,8.4-3.1,12.4s-6.7,5-11.2,3.8c-2.7-0.7-4,0.4-5,2.7c-1.9,4-3.4,8.2-4.4,12.5c-0.3,1.5-0.2,2.8,1.3,3.4  c6.2,2.4,7.3,7.2,7.2,13.3c0,3.5-0.6,5.8-3.6,7.5c-0.9,0.5-1.7,1.4-2.6,2c-1.2,0.6-1.6,2.1-1.1,3.3c1.5,4.7,3.6,9.3,6.2,13.6  c0.9,1.4,2,1.9,3.4,1.4c5.7-2.3,9.5-0.2,14,3.8c3.8,3.4,3.6,6.7,2.9,10.5c-0.5,2.6,0.4,3.8,2.6,4.8c4,1.9,8.2,3.4,12.5,4.4  c1.6,0.4,3,0.2,3.6-1.4c2.5-6,7.1-6.9,13.1-7.2c4.6-0.3,6.3,2,8.4,4.7c2.7,3.4,2.7,3.3,6.7,1.9c3.9-1.4,7.6-3.2,11.1-5.4  C1516.1,2058.3,1517.1,2057.7,1516.6,2056.4z M1484.6,1982.8c16,0,28,12.1,28,28.1c0,15.5-12.5,28-28,28s-28-12.5-28-28  C1456.6,1994.9,1468.7,1982.8,1484.6,1982.8z"></path>
<path class="st10" d="M1809.8,2966c0,0-42.7,94-38.2,274.5s-0.3,213.9-0.3,213.9s109.7,45.4,215,12.3c116.6-36.7,133-51.3,133-51.3  s13.4-191-35.7-372.4l-26.7-93.4C2056.8,2949.7,1916.6,2998.5,1809.8,2966z"></path>
<path class="st9" d="M2061.5,2966c0,0-176.9,108.3-161.3,201.9s-79.4,301.4-79.4,301.4l-49.5-14.8c0,0,4-150.6,0-220.4  s-4.3-127.4,38.6-268c0,0,103.5,29.2,247-16.3L2061.5,2966z"></path>
<path class="st3" d="M1684.6,2897.8c0,0-9.5,20.5,0,31s54,34.3,93.2,75.9c0,0,28.8,5.4,39.6,2.1s2.2,15.3-20.6,16.1  c0,0-15.2,33.6-15.8,62c0,0-9.7-8.7-22.7-46.6c0,0-78.3-42.6-132.6-91.6S1639.8,2838.5,1684.6,2897.8z"></path>
<path class="st19" d="M1608.5,2922.4c0,0,41.8-3.8,66.6,11.9c24.1,15.3,44.1,20.2,44.1,20.2s-44.3-28.5-26.3-56.8  C1714.8,2863.6,1608.5,2922.4,1608.5,2922.4z"></path>
<path class="st2" d="M1885.1,2593.8c0,0,21.3,20.4,79.2-4.6c0,0,55.7,3.2,80.9-13.9s115.9,104.7,187.9,98.1c0,0,22.3,87.6-26.7,94.3  c0,0-109.9-32-124.8-39.8c0,0-4.5,20.4,25.2,51.6s-32.7,115.1-50.1,170.1c0,0-157.1,51.2-247,16.3c0,0,21.6-70.6-22.3-166.4  c0,0-78,114.4-92.1,121.1s-97.3,46-103.3-4.5c0,0,142.6-259.2,163.4-277.8s52-23,52-23s53.5-8.9,62.4-17.1  S1885.1,2593.8,1885.1,2593.8z"></path>
<path class="st2" d="M2081.7,2727.9l-22.7-8.9c0,0,6.7,38.4,40.7,86.4c0,0,12.1,15.5-5.6,62.1c0,0,37.6-66.7,12.8-87.9  C2107,2779.6,2079.8,2751.6,2081.7,2727.9z"></path>
<polygon class="st30" points="1787.5,2799.6 1772.4,2767.1 1731.6,2878.3 "></polygon>
<path class="st19" d="M1796.8,3022.8c0,0-4.3-3.5-6.4-1.5s-11.5,61.1-11.5,61.1l2.1,2.4L1796.8,3022.8z"></path>
<path class="st31" d="M1837.3,2499.5c0,0,39.4-34.2,62.4,10.4s-61.3,53.6-80,33.9S1837.3,2499.5,1837.3,2499.5z"></path>
<circle class="st22" cx="1947.9" cy="2462.7" r="10.9"></circle>
<polygon class="st32" points="2367.6,2975.1 2371.6,2958.9 2617.8,2994.2 2614.3,3009.4 "></polygon>
<path class="st33" d="M3998.8,3738.9c0.3,0,0.5-0.2,0.5-0.5s-0.2-0.5-0.5-0.5s-0.5,0.2-0.5,0.5S3998.5,3738.9,3998.8,3738.9z"></path>
<path class="st5" d="M3186.6,2676.7v137.6l-57.5-12.7C3129.1,2801.6,3166.8,2761.3,3186.6,2676.7z"></path>
<path class="st5" d="M1961.1,2972.9c0,0-113.4,29.5-163.2,27.5c0,0,8.8-33.1,11.9-34.4C1809.8,2966,1863.7,2990.1,1961.1,2972.9z"></path>
</svg>