<svg xmlns="http://www.w3.org/2000/svg" xmlns:xlink="http://www.w3.org/1999/xlink" id="Layer_1" x="0px" y="0px" viewBox="0 0 4357.1 3621.4" style="enable-background:new 0 0 4357.1 3621.4;" xml:space="preserve">
<style type="text/css">
	.st0{fill:#EEEEEE;}
	.st1{fill:#EAF2F9;}
	.st2{fill:#D3D3D3;}
	.st3{fill:#FAC2AE;}
	.st4{fill:#2C5B77;}
	.st5{fill:#33658A;}
	.st6{fill:#0C1947;}
	.st7{fill:#F1A080;}
	.st8{fill:#F78F20;}
	.st9{fill:#F6A538;}
	.st10{fill:#FFFFFF;}
	.st11{fill:#84B4FE;}
	.st12{fill:#214A81;}
	.st13{fill:#7BADC9;}
	.st14{opacity:0.17;fill:#EFEFEF;enable-background:new    ;}
	.st15{opacity:0.49;fill:#111D49;enable-background:new    ;}
	.st16{fill:#F9BCAA;}
	.st17{fill:#091644;}
	.st18{fill:#080F28;}
	.st19{fill:#192126;}
	.st20{fill:#0A1A49;}
	.st21{fill:#232F63;}
	.st22{fill:#2E5D7A;}
	.st23{opacity:0.48;fill:#131F3F;enable-background:new    ;}
	.st24{fill:#2D4754;}
	.st25{fill:#0D1214;}
	.st26{fill:#DB761B;}
	.st27{fill:#C66617;}
	.st28{fill:#6A889B;}
	.st29{fill:#232020;}
	.st30{fill:#FFFFFF;stroke:#F78F20;stroke-width:8;stroke-miterlimit:10;}
	.st31{fill:#FFFFFF;stroke:#33658A;stroke-width:8;stroke-miterlimit:10;}
</style>
<ellipse class="st0" cx="894.9" cy="3293.3" rx="501.6" ry="115.6"></ellipse>
<ellipse class="st0" cx="3716.3" cy="3302.2" rx="501.6" ry="115.6"></ellipse>
<ellipse class="st1" cx="2498" cy="3210.6" rx="171.9" ry="60.8"></ellipse>
<path class="st0" d="M937.4,3071.2h2551.2c0,0,374.7-1165.1-32-1409.3c-363.6-218.2-230.4-864.9-741.9-790.2  s-542.8,293.4-1057.3,247.8C892.6,1051.7,422.5,1652.7,869.1,2483C981.9,2692.8,990.8,2905.5,937.4,3071.2z"></path>
<rect x="1635.6" y="2465.7" class="st2" width="48.4" height="600.4"></rect>
<rect x="3123.1" y="2466.2" class="st2" width="48.4" height="600.4"></rect>
<rect x="1560.4" y="2423.8" class="st2" width="1696.3" height="81.8"></rect>
<rect x="538.4" y="3066.7" class="st2" width="3264.9" height="15.2"></rect>
<path class="st2" d="M3125,892c5.4-24.6,5.3-24.6-18.9-30.6c-3.2-1.2-6.5-1.9-9.8-0.2c-5.3-2.4-11.1-3.8-16.9-4.2l-12-2.7  c-7.3-0.3-10.9-3.4-10-11.3c0.4-3.8-1.2-7.8-1.8-11.7c-0.3-16.7-5.1-32.4-10.4-48c-2.4-7-1.1-10.9,5.1-14.9  c15.2-9.7,29.9-20.3,45.1-30.1c5.9-3.8,6.1-6.7,2.3-12.3c-20.5-29.7-40.8-59.6-60.8-89.7c-4.4-6.7-7.8-5.9-13.4-2  c-14.4,10.2-29.4,19.7-43.7,30c-5.8,4.2-9.8,4.6-15.4-0.5c-15.3-13.7-32.5-25-51.2-33.6c-6.4-2.9-7.9-6.5-6.5-13.1  c3.7-17.3,6.4-34.7,10.2-52c1.6-7.3,0.4-11-7.6-12.5c-35.1-6.4-70.2-13-105.2-20.1c-7.5-1.5-9.9,0.9-11.1,7.7  c-3,17.8-6.8,35.5-9.7,53.3c-1.1,6.8-4,9.1-10.9,9.5c-20.1,1.2-39.9,4.8-58.8,11.9c-8,3-12.2,1.1-16.5-5.8  c-9-14.3-19.1-27.8-28.1-42.1c-4.3-6.8-7.7-8.3-14.9-3.2c-28.9,20.2-58.2,40.1-87.6,59.6c-6.2,4.1-6.9,7.3-2.7,13.3  c10.2,14.4,19.6,29.4,29.8,43.8c4.1,5.7,5,9.6-0.2,15.5c-13.9,15.7-25.4,33.3-34.2,52.2c-2.8,5.9-6.4,7.1-12.4,5.9  c-9.8-2-19.4-5.1-29.5-4.9c-2.6-0.8-5.2-1.9-7.9-2.5c-27.6-6.1-27.7-6.1-29.9,22.4c-0.2,1.3-0.4,2.6-0.5,3.9  c-6.7,25.6-10.8,51.7-15.5,77.7c-2.7,15-1.6,16.2,13.9,18.9c18.1,3.1,36.1,6.6,54.2,9.9c1.8,4.9-1.1,10.7,2.9,15.2  c0.1,1.6,0.2,3.2,0.3,4.7c-1.4,4.1-0.9,8.6,1.3,12.4c0.6,1.5,1.1,3,1.6,4.5c-0.8,10.3,2.5,19.9,6.3,29c3.9,9.4,1.5,14.3-6.7,19.4  c-14,8.6-27,18.7-41,27.4c-7.4,4.6-7.4,8.3-2.7,15c19.7,28.3,39.2,56.7,58,85.6c5.8,8.9,10.4,9.4,17,1.9l0,0  c14.9-7.2,27.2-18.3,41.2-26.8c3.6-2.2,6.7-6.1,11.8-4.3c4.8,5.7,10.5,10.4,17.1,13.9l4.3,3c5,4.8,10.9,8.6,17.3,11.2  c0.3,0.6,1,1,1.7,0.9l3,1.9c2.4,1.5,4.6,3.5,7.1,4.3c11.7,3.6,13.3,10.8,10.4,22c-4.1,15.5-6.2,31.4-9.6,47.1  c-1.4,6.6,0.7,9.5,7.2,10.7c35.4,6.6,70.9,13.1,106.2,20.2c7.9,1.6,9.8-1.7,10.9-8.2c3.1-17.3,6.9-34.6,9.7-52  c1.1-6.6,3.3-9.8,10.4-10.2c20.8-1.3,41.4-5.6,61-12.6c7.6-2.7,10.7-0.1,14.4,5.6c9.8,15.2,20.3,29.8,30.1,44.9  c3.4,5.3,6.5,6,11.5,2.4c17-12,34.1-23.8,51.2-35.7l2.7-2v0.1c5.4-2.3,10.3-5.7,14.4-9.9c6.5-3,12.5-7,17.7-11.8l3.9-2.8  c3.1-1.8,9.5-2,3.9-8c0.1-0.7-0.3-1.3-1-1.5c0-2-0.8-3.6-2.9-4.3l-0.3-0.8l0,0c-5.6-11.6-13.3-21.7-21.2-31.7l-2.9-4.3  c-0.7-0.9-1.3-1.8-2-2.7h0.1l-6.3-11.8l1.3-2.5l2.1-2.3l0.2-0.3l1.9-1.9c14-14.6,24.3-31.8,33.2-49.8c3.5-7,7.1-8.9,14.9-7.2  c17.2,4,34.6,6.9,51.9,10.2c4.3,0.8,9.1,2.5,10.2-4.3c4.3-25.6,11.3-50.8,13.3-76.8c-1.1,0.2-2.2,0.3-3.3,0.4  c1.1-0.1,2.1-0.2,3.3-0.4C3122.1,901.9,3123.9,897,3125,892z M2772.9,1017.9c1,0.4,2,0.6,3,0.7  C2774.8,1018.5,2773.8,1018.3,2772.9,1017.9z M2946.9,872.8c-1.5,13.1-3.2,26.1-6.7,38.9c-0.5,0.6-0.7,1.4-0.5,2.2l0,0l-11.8,26.8  l-0.1,0.1l-7.5,11.8l0,0l-1.8,2.4l-3.1,4.4l-2.4,2.9l-2.3,2.7l-1.9,2.1l-2.7,3c-3,1.5-5.4,3.9-6.9,6.8l-0.3,0.3l-2.1,2l-0.4,0.3  l-2.1,2l-2.9,2.3l-2.7,2.4l-4.3,3.1c-4.8,3.1-9.5,6.2-14.3,9.3l-0.1,0.1l-43.5,16.5l-4.9,0.6c-3.6-0.4-7.1-0.2-10.3,1.7l-30.6,0.1  c-3.8-1.7-7.9-2.4-12-1.9l-4.8-0.7c-16.5-5.3-32.8-11.1-48.1-19.2c0,0,0,0.1,0.1,0.1l-2.7-1.8l-4.6-2.9c-1.6-2.5-4.1-4.4-7-5.3  c0,0.1,0.1,0.2,0.1,0.3l-2.8-2.3l-2.5-2.2l-2.7-2.4l-16.4-17.1l-3.9-5l0,0c-2.9-5.8-6.1-11.5-10.7-16.3l-0.1-0.2  c-0.6-3.6-2.2-6.8-4.7-9.4l-0.1-0.2l-2.1-3.9l-0.2-0.9c-7.4-22.6-13.3-45.3-12.3-69.6c0.5-11.6,7.2-22.1,5.1-33.9  c7.1-12,10.6-25.8,18.6-37.4c37.8-55.1,89.8-78.4,155.8-68.4c58.3,8.8,106,55.5,120.4,115.7c0.8,3.1,1.6,6.2,2.4,9.3  c-0.7,2.8,0.5,5.7,3,7.1C2945.6,856.8,2946,864.8,2946.9,872.8z"></path>
<g>
	<path class="st0" d="M3253.2,516.4c7.9-12.6,7.9-12.7-4.5-20.8c-1.6-1.3-3.2-2.4-5.4-2.1c-2.5-2.4-5.4-4.3-8.6-5.7l-6.1-3.9   c-4-1.6-5.4-4-3.3-8.3c1-2,0.9-4.6,1.3-6.9c3.1-9.4,3.6-19.1,3.7-28.8c0.1-4.4,1.6-6.3,5.8-7.3c10.4-2.4,20.7-5.4,31.1-7.8   c4-0.9,4.8-2.5,3.7-6.4c-5.6-20.7-11-41.4-16.1-62.1c-1.1-4.6-3.2-4.8-7.1-3.8c-10.1,2.8-20.3,5.2-30.3,8.1   c-4.1,1.2-6.4,0.6-8.5-3.3c-5.8-10.7-13.2-20.4-21.9-28.9c-3-2.9-3.1-5.2-1-8.6c5.5-8.9,10.5-18.1,16-27c2.3-3.8,2.4-6.1-1.8-8.5   c-18.3-10.5-36.6-21.2-54.7-32.1c-3.9-2.3-5.7-1.5-7.7,2.1c-5.2,9.3-10.9,18.4-16,27.8c-2,3.6-4,4.3-8,3.1   c-11.4-3.4-23.3-5.1-35.2-5c-5.1,0.1-7-1.8-8.1-6.5c-2.2-9.8-5.1-19.3-7.3-29c-1.1-4.7-2.6-6.1-7.6-4.8   c-20.2,5.5-40.4,10.8-60.7,15.8c-4.3,1.1-5.3,2.7-4.1,6.9c2.8,10.1,5.1,20.3,7.9,30.4c1.1,4,0.9,6.4-3.2,8.6   c-10.9,6-20.8,13.5-29.4,22.4c-2.7,2.8-5,2.7-8.1,0.8c-5.1-3-9.8-6.7-15.5-8.6c-1.3-1-2.5-2.1-3.9-3c-14.2-8.9-14.2-8.9-21.1,6.6   l-1.1,2c-8.8,13-16.3,26.7-24.1,40.3c-4.5,7.8-4.1,8.7,4,13.3c9.5,5.3,18.9,10.8,28.3,16.3c0.1,3.1-2.8,5.8-1.4,9.1   c-0.2,0.9-0.5,1.8-0.8,2.7c-1.6,2-2.2,4.6-1.7,7.2c0,1,0,1.9,0,2.8c-2.5,5.6-2.6,11.6-2.2,17.4c0.3,6-2,8.3-7.6,9.5   c-9.5,2-18.8,5.1-28.3,7.1c-5,1.1-5.8,3.1-4.5,7.8c5.4,19.7,10.6,39.4,15.4,59.3c1.5,6.1,3.9,7.3,9.1,4.4l0,0   c9.7-1.1,18.8-4.8,28.3-6.8c2.5-0.5,5-2.1,7.4-0.1c1.5,4.1,3.8,7.9,6.8,11.2l1.8,2.6c1.8,3.7,4.4,7,7.4,9.7   c0.1,0.4,0.4,0.8,0.8,0.8l1.3,1.7c1,1.3,1.8,2.9,3.1,3.8c5.8,4.3,5.3,8.7,1.4,14.3c-5.3,7.8-9.7,16.3-14.7,24.4   c-2.1,3.4-1.5,5.5,1.9,7.4c18.5,10.7,37,21.4,55.3,32.4c4.1,2.4,5.8,1,7.7-2.4c5.2-9.1,10.7-17.9,15.7-27.1   c1.9-3.5,3.8-4.8,7.8-3.7c11.9,3.4,24.2,5.1,36.5,5.1c4.7,0,6,2,6.9,6c2.4,10.4,5.4,20.7,7.9,31c0.9,3.6,2.4,4.6,6,3.6   c11.9-3.3,23.8-6.5,35.7-9.7l1.9-0.6v0.1c3.5-0.2,6.9-1.1,10-2.7c4.2-0.4,8.3-1.4,12.2-3.1l2.7-0.8c2.1-0.4,5.7,0.8,3.8-3.7   c0.2-0.4,0.1-0.8-0.3-1c0.5-1,0.2-2.3-0.8-3V608l0,0c-0.8-7.6-3.1-14.8-5.5-21.9l-0.8-3c-0.2-0.6-0.4-1.3-0.6-1.9h0.1   c-0.4-2.6-0.8-5.2-1.2-7.9l1.2-1.2l1.6-0.9l0.2-0.1l1.4-0.7c10.7-5.4,19.9-12.9,28.4-21.2c3.3-3.2,5.8-3.6,9.7-1   c8.8,5.6,18,10.7,27,16c2.2,1.3,4.6,3.2,6.6-0.3c7.5-13.4,16.4-26.1,22.7-40.2c-0.7-0.1-1.3-0.3-1.9-0.4c0.6,0.2,1.2,0.3,1.9,0.4   C3249.6,521.3,3251.6,519,3253.2,516.4z M3031.7,516.7c0.5,0.4,1,0.7,1.5,1C3032.6,517.5,3032.1,517.1,3031.7,516.7z M3157.6,470.3   c-3.3,7.1-7.1,13.9-11.5,20.3c-0.4,0.2-0.7,0.7-0.7,1.1l0,0l-11.9,12.6h-0.1l-6.5,5.1l0,0l-1.5,1l-2.6,1.8l-1.9,1.2l-1.8,1   l-1.5,0.8l-2.1,1.1c-1.9,0.2-3.8,1.1-5.2,2.4l-0.3,0.1l-1.6,0.7l-0.3,0.1l-1.6,0.7l-2.1,0.7l-2,0.8l-3,0.9l-9.8,2.3h-0.1l-27.5,0.6   l-2.9-0.6c-1.8-1-4-1.4-6.1-1.1l-17.1-6c-1.8-1.7-3.9-2.9-6.3-3.4l-2.5-1.3c-8.1-6.2-16.1-12.7-23-20.3c0,0,0,0,0,0.1   c-0.4-0.5-0.8-1-1.2-1.6c-0.7-0.8-1.3-1.7-2-2.5c-0.4-1.7-1.4-3.3-2.9-4.3v0.2c-0.4-0.6-0.7-1.2-1.1-1.9s-0.6-1.1-1-1.7l-1.1-1.9   c-1.9-4.3-3.8-8.5-5.8-12.8l-1.2-3.6l0,0c-0.3-3.9-1.3-7.6-2.7-11.2v-0.1c0.4-2.1,0.1-4.3-0.8-6.2v-0.2c-0.1-0.9-0.2-1.7-0.4-2.6   l0.1-0.6c0.3-14.1,1.6-28,7-41.3c2.6-6.4,8.4-10.9,9.6-17.9c6.4-5.3,11.1-12.3,17.8-17.2c32-23.2,65.7-25.9,100.5-7.2   c30.8,16.5,48.1,52,44.2,88.5c-0.2,1.9-0.3,3.8-0.5,5.7c-1,1.4-0.8,3.3,0.3,4.6C3160,461.1,3158.7,465.7,3157.6,470.3z"></path>
</g>
<path class="st3" d="M3535.9,3159.1c0,0,8.8,71.7-25.4,82.2s78.5,25.6,78.5,25.6l22.1-96.2L3535.9,3159.1z"></path>
<path class="st3" d="M3867.5,2983c3.3,0,94.7,64.1,94.7,64.1s26.8-39.6-8.8-80.7c-33.9-39.1-75.6-80.8-75.6-80.8L3867.5,2983z"></path>
<path class="st4" d="M3548.6,2427.8l-94.5,349.9c0,0-28.2,36.5,39.8,68s349.9,152.6,349.9,152.6l58-107.8c0,0-163.1-139.3-256.5-141  s75.7-321.7,75.7-321.7L3548.6,2427.8z"></path>
<path class="st4" d="M3817.4,2979.8c1.2-0.9,69.6-91,14.2-143.4l64.3,49.1l-77.8,101.7L3817.4,2979.8z"></path>
<polygon class="st4" points="3712.4,2767.1 3745.6,2782.6 3718.2,2944.1 3649.8,2913.8 "></polygon>
<path class="st5" d="M3563.5,2434.4c0,0-44.8,340-36.5,359.9s-1,333.3-1,333.3l109.6,24.9c0,0,73.8-316.8,80.5-359  s84.6-359,84.6-359L3563.5,2434.4z"></path>
<path class="st4" d="M3564,2472.3c0,0,119,71,214.2,53.9l16.7-60.2L3564,2472.3z"></path>
<path class="st4" d="M3534.1,3118.5c0,0,110.4-21,131.2-94.4l-36.1,158.3L3534.1,3118.5z"></path>
<path class="st6" d="M937.8,1410.7c0,0,6.8-68.5,57.5,8.4C1046,1496,937.8,1410.7,937.8,1410.7z"></path>
<path class="st3" d="M631.5,2772.2c0,0-16.2,91.4,14.7,332.4c0,0,21.4,118.3,17,143.8s66.7-29.5,66.7-29.5s-26.5-312.9,31-429  S631.5,2772.2,631.5,2772.2z"></path>
<path class="st7" d="M629.3,2792.6c0,0-1.9,32.1-2,45.9s115.2,5,115.2,5l14.4-48.1L629.3,2792.6z"></path>
<path class="st3" d="M839.9,2754.5c0,0-22.2,97.7,0.2,307.5c2.7,25,6.6,49.9,11.7,74.5c6.4,31,14.8,77.7,12,94.2  c-4.4,25.4,68.5-10.3,68.5-10.3s-20.5-332,37-448.1C1026.8,2656,839.9,2754.5,839.9,2754.5z"></path>
<path class="st7" d="M832,2808.1c0,0-1.9,32.1-2,45.9s115.2,5,115.2,5l14.4-48.1L832,2808.1z"></path>
<path class="st8" d="M3273.8,1886.4H3516c6.1,0,11,4.9,11,11v111.8c0,6.1-4.9,11-11,11h-242.2c-6.1,0-11-4.9-11-11v-111.8  C3262.8,1891.3,3267.7,1886.4,3273.8,1886.4z"></path>
<path class="st9" d="M3273.8,2018.8H3516c6.1,0,11,4.9,11,11v111.8c0,6.1-4.9,11-11,11h-242.2c-6.1,0-11-4.9-11-11v-111.8  C3262.8,2023.7,3267.7,2018.8,3273.8,2018.8z"></path>
<path class="st5" d="M1491.8,360.8h968.1c91.1,0,165,73.9,165,165v2080.9c0,91.1-73.9,165-165,165h-968.1c-91.1,0-165-73.9-165-165  V525.8C1326.8,434.7,1400.7,360.8,1491.8,360.8z"></path>
<path class="st10" d="M1945.2,2679.2c-55.3,0-100.1-44.8-100.1-100.1s44.8-100.1,100.1-100.1s100.1,44.8,100.1,100.1  C2045.2,2634.3,2000.4,2679.1,1945.2,2679.2z"></path>
<path class="st11" d="M2094.9,456.8h-230.4c-6,0-10.8,4.8-10.8,10.8c0,6,4.8,10.8,10.8,10.8h230.4c6,0,10.8-4.8,10.8-10.8  C2105.7,461.6,2100.9,456.8,2094.9,456.8L2094.9,456.8z"></path>
<path class="st11" d="M1811.7,482c-3.8,0-7.5-1.5-10.2-4.2c-0.7-0.7-1.3-1.4-1.8-2.2c-0.5-0.8-1-1.6-1.4-2.4  c-0.3-0.9-0.6-1.8-0.8-2.7c-0.4-1.9-0.4-3.8,0-5.7c0.2-0.9,0.5-1.8,0.9-2.7c0.4-0.9,0.8-1.7,1.3-2.5c0.5-0.8,1.1-1.5,1.8-2.2  c0.7-0.7,1.4-1.3,2.2-1.8c0.8-0.5,1.6-0.9,2.5-1.3c0.9-0.4,1.8-0.7,2.7-0.9c1.9-0.4,3.8-0.4,5.6,0c0.9,0.2,1.9,0.5,2.7,0.9  c0.9,0.4,1.7,0.8,2.4,1.3c0.8,0.5,1.5,1.1,2.2,1.8c0.7,0.7,1.3,1.4,1.8,2.2c0.5,0.8,0.9,1.6,1.3,2.5c0.4,0.9,0.6,1.8,0.8,2.7  c0.2,0.9,0.3,1.9,0.3,2.9c0,0.9-0.1,1.9-0.2,2.8c-0.2,0.9-0.5,1.8-0.9,2.7c-0.3,0.9-0.8,1.7-1.3,2.4c-1,1.6-2.4,3-4,4  c-0.8,0.5-1.6,0.9-2.4,1.3c-0.9,0.4-1.8,0.7-2.7,0.9C1813.6,481.9,1812.7,482,1811.7,482z"></path>
<rect x="1422.6" y="572.3" class="st10" width="1092.6" height="1815.5"></rect>
<rect x="1422.6" y="572.3" class="st2" width="1092.6" height="184.5"></rect>
<path class="st12" d="M1562.8,665.7c0,17.8-14.5,32.3-32.3,32.3s-32.3-14.5-32.3-32.3c0-17.8,14.5-32.3,32.3-32.3c0,0,0,0,0,0  C1548.3,633.4,1562.8,647.9,1562.8,665.7z"></path>
<path class="st13" d="M1665.8,665.7c0,17.8-14.5,32.3-32.3,32.3s-32.3-14.5-32.3-32.3c0-17.8,14.5-32.3,32.3-32.3c0,0,0,0,0,0  C1651.3,633.4,1665.8,647.9,1665.8,665.7z"></path>
<path class="st12" d="M1768.8,665.7c0,17.8-14.5,32.3-32.3,32.3s-32.3-14.5-32.3-32.3c0-17.8,14.5-32.3,32.3-32.3  S1768.8,647.9,1768.8,665.7L1768.8,665.7z"></path>
<path class="st14" d="M2366.3,360.8l-574.8,2411h-297.3c-92.4,0-167.4-74.9-167.4-167.4l0,0V524.2c0-90.2,73.2-163.4,163.4-163.4  l0,0H2366.3z"></path>
<rect x="1449.6" y="984.5" transform="matrix(0.9328 -0.3605 0.3605 0.9328 -305.4619 777.3083)" class="st0" width="963" height="446.1"></rect>
<rect x="1399" y="948.3" transform="matrix(0.9328 -0.3605 0.3605 0.9328 -295.8319 756.6255)" class="st5" width="962.9" height="446.1"></rect>
<rect x="1460.4" y="988.9" transform="matrix(0.9328 -0.3605 0.3605 0.9328 -295.0215 757.9437)" class="st10" width="848" height="361.9"></rect>
<polygon class="st8" points="1774.2,1089.5 1852.1,1283.5 1940,1134.3 "></polygon>
<path class="st5" d="M726.4,3198.8c0,0-34.5,18.8-71.5-4.6c0,0-27-10.5-10.4,129.7c0,0,219.4,7.9,281-0.4c0,0,22.8-56.3-54.1-69.7  S726.4,3198.8,726.4,3198.8z"></path>
<path class="st15" d="M924.6,3287.2c0,0-281-9-285.7-32.4l5.4,49.4l284.5,2.1C928.7,3306.3,927.5,3292.4,924.6,3287.2z"></path>
<path class="st10" d="M925.4,3323.4c0,0,5.3-14.8,2.7-25l-286.8-5.1l4.1,34.1C645.4,3327.4,910,3329.2,925.4,3323.4z"></path>
<path class="st10" d="M734.2,3328.9c-46.8,0-84.8-0.2-88.8-0.3h-1.1l-4.4-36.6h1.4l287.8,5.1l0.2,0.9c2.7,10.5-2.5,25.1-2.7,25.8  l-0.2,0.5l-0.5,0.2C916.2,3328.2,812.7,3328.9,734.2,3328.9z M646.4,3326.2c18.2,0.1,259.1,1.5,278.1-3.8c0.9-2.6,4.5-14.3,2.7-22.9  l-284.5-5L646.4,3326.2z"></path>
<path class="st16" d="M1016.8,1454.4c0,0,231.7-302.9,275.9-328.4s84.9-21.6,123.1-34.1c13.4-4.4,49.4,3.2,35.3,7.3  c-7.1,2-14,4.8-20.4,8.3c0,0-7.7,4.3-18.7,9.4c-8,3.6-16.4,6.4-25,8.1c-15.2,3.2-42.8,14.3-14.3,51.8c27,35.5,13.5,35.4-0.4,26.4  c-13.7-8.9-38.5-14.9-54.8-13.8l-11.3,0.7c0,0-179.1,335-231.1,319.5C1022.9,1494.1,1016.8,1454.4,1016.8,1454.4z"></path>
<path class="st7" d="M1023.5,1443.8l18.2-21.7c0,0,40.7,19.6,75.6,10.9c32.4-8.1,54.7-19.2,54.7-19.2s-59.4,86.5-80.2,94.2  S1023.5,1443.8,1023.5,1443.8z"></path>
<path class="st17" d="M3542.9,1461.3c0,0-26.8-46.7-51.5,18.9s54.1,81.3,54.1,81.3L3542.9,1461.3z"></path>
<path class="st3" d="M3619.9,1466.5c0,0-110.5,1.4-119.8,60.6s4.4,59.9-32.5,81.9c0,0-12.6,4.6,8.4,21.5s23.3,28.1,15.9,48.2  s10.6,43.5,64.3,35.4s48.6,10.4,48.6,10.4s8,46-26.1,92.2s97.5-13.8,97.5-13.8s-9.6-70.1,37.4-103.1s35.3-137.1,35.3-137.1l-96.3-81  L3619.9,1466.5z"></path>
<path class="st7" d="M3667.4,1723.6c0,0,4.7,56.3-20.1,66s-58.5,19.8-58.5,19.8s74,3.3,87.4-11.1c0,0,2.1-2.8-1.6-44.8  S3667.4,1723.6,3667.4,1723.6z"></path>
<path class="st7" d="M3716.3,1645.8c0,0-55.9,31.3-51.7,58.8s10.8,88.9,10.8,88.9s5.2-66.1,16.2-79.8S3716.3,1645.8,3716.3,1645.8z"></path>
<path class="st18" d="M3552.5,1482.4c0,0-21.9-92.6,52.6-64.6s22.8,96.6,22.8,96.6l-22.4-17.5c-14.2-11.1-32.1-16.4-50.1-14.7  L3552.5,1482.4z"></path>
<path class="st7" d="M3552.5,1482.4c0,0,57.7-4.1,81.8,40s20,56.3,26.3,66.8s-62.1-23.2-69.7-59.3S3552.5,1482.4,3552.5,1482.4z"></path>
<path class="st18" d="M3651.2,1566.3c0,0,21.8,42.5,14.4,69.1c0,0,7-48.2,42.8-40.2S3651.2,1566.3,3651.2,1566.3z"></path>
<path class="st19" d="M3552.5,1482.4c0,0-9.3-44.4,8.2-38.8c29.7,9.4,35.5,34,42.6,64.4c1.2,4.6,1.7,9.3,1.6,14  c-1.3,21.6,14.3,45.4,66.2,60.6s69,55.7,23,91.7s-7.7,73.9-7.7,73.9s16.1-40,49.2-45.4s128.3-75.1,99.9-164.3  c-11.3-35.5-26.1-35.6-33.3-50.9c-24.8-53.1-131.1-139-239.9-85.7c0,0-48.2,22.2-19.2,79.2L3552.5,1482.4z"></path>
<path class="st20" d="M3711,1605.6c0,0,51,28.5,1.2,81.8c0,0-21.4,28.1-13.8,40.2l-12,20.4c0,0-39.6-39.8,7.7-73.9  C3694.1,1674.1,3734.9,1648.7,3711,1605.6z"></path>
<path class="st21" d="M3806.5,1494.3c0,0,35.7,49,39.6,67.4C3846,1561.7,3847.7,1509.5,3806.5,1494.3z"></path>
<path class="st3" d="M895.2,1452.7c0,0,54.7-61.4,139.3-18.2c0,0,33.2,26.5,81.3,8.3l-8.4,29.6c0,0,84.7,65,53.2,134.6  s-154.2,59.7-144.3,185.7c10,126-121.1,19.9-121.1,19.9s44.8-19.9,6.6-87.9S848.8,1469.3,895.2,1452.7z"></path>
<path class="st7" d="M964.2,1419.6c0,0,52.9,47.1,36.3,86.1s-18,90.1,16.3,96.7c0,0-51.9,18.8-71.3,7.2S905.4,1418.1,964.2,1419.6z"></path>
<path class="st7" d="M965,1623.4c0,0-16.3,25.5,8.3,41c16.7,10.5,22.1,20.2,25.2,37.6c2.9,17,2.5,34.5-1.1,51.4  c-2.4,11.3-4.5,24.4-3.5,31.3c0,0-65.4,26.5-85.2,16.2c0,0,25.5-31.3-4.1-86.3S961.5,1612.8,965,1623.4z"></path>
<path class="st22" d="M640.9,2238.3c0,0-32.6,144.7-37.6,557.6c0,0,94.5,34,165.8,19.1l87-516.4L640.9,2238.3z"></path>
<path class="st5" d="M725.2,2276.8c0,0,75.5,471.1,67.2,545.7l5,0.9c65.3,11.5,132.1,11.2,197.3-0.9l0,0c0,0,33.7-454.5,27.1-495.9  C1015.1,2285.1,725.2,2276.8,725.2,2276.8z"></path>
<path class="st23" d="M627.9,2270.1c0,0,76.1,151.7,391.7,168.7l2.2-102.9C1021.8,2335.9,628.9,2218.1,627.9,2270.1z"></path>
<path class="st5" d="M933.1,3204.9c0,0-34.6,18.8-71.6-4.7c0,0-27-10.5-10.4,129.7c0,0,219.4,7.9,281-0.4c0,0,22.8-56.4-54.1-69.7  S933.1,3204.9,933.1,3204.9z"></path>
<path class="st10" d="M1053.5,3254.5c0,0-6.4,34.2,0,48.5l81.3,1.4C1134.9,3304.4,1137.8,3262.5,1053.5,3254.5z"></path>
<path class="st15" d="M1131.4,3293.3c0,0-281-9-285.7-32.4l5.4,49.4l284.5,2.1C1135.5,3312.4,1134.2,3298.6,1131.4,3293.3z"></path>
<path class="st10" d="M1132.2,3329.5c0,0,5.3-14.8,2.7-25l-286.9-5l4.1,34.1C852.1,3333.6,1116.8,3335.3,1132.2,3329.5z"></path>
<path class="st10" d="M940.9,3335c-46.8,0-84.7-0.3-88.7-0.3h-1.1l-4.4-36.6h1.4l287.8,5.1l0.2,0.9c2.7,10.5-2.5,25.1-2.7,25.8  l-0.2,0.5l-0.5,0.2C1122.9,3334.3,1019.4,3335,940.9,3335z M853.2,3332.3c18.2,0.1,259.1,1.5,278.1-3.8c0.9-2.6,4.5-14.3,2.7-22.9  l-284.5-5L853.2,3332.3z"></path>
<path class="st24" d="M3526.3,3223.9c0,0,33.5,15.4,69.3-3.8c0,0,26.1-8.6,10,106.3c0,0-212.5,6.5-272.1-0.3  c0,0-22.1-46.2,52.4-57.1S3526.3,3223.9,3526.3,3223.9z"></path>
<path class="st15" d="M3334.4,3296.4c0,0,272.1-7.4,276.7-26.6l-5.2,40.5l-275.5,1.8C3330.4,3312,3331.6,3300.7,3334.4,3296.4z"></path>
<path class="st24" d="M3333.6,3326c0,0-5.2-12.1-2.6-20.5l277.8-4.1l-3.9,28C3604.8,3329.4,3348.5,3330.9,3333.6,3326z"></path>
<path class="st24" d="M3932,3032.3c0,0,27.4-24.7,23.9-65.2c0,0,2.4-27.4,101.6,32.8c0,0-78.1,197.7-107.9,249.8  c0,0-51.1,2-31.8-70.7S3932,3032.3,3932,3032.3z"></path>
<path class="st15" d="M3922.6,3237.3c0,0,100.9-252.9,85-264.7l35.1,20.8l-107.3,253.7C3935.4,3247.1,3925.5,3241.5,3922.6,3237.3z"></path>
<path class="st24" d="M3949.5,3249.7c0,0-13.2,0-19.9-5.7l106.1-256.8l24.1,14.7C4059.9,3001.9,3959.9,3237.9,3949.5,3249.7z"></path>
<path class="st3" d="M1116.3,1750.1c0,0,66.5-27.7,132.7-62.8c0,0,56.2-42.4,89.7-60.8s165.8-107.9,165.8-107.9s8.8-22.8,38.4-37.3  c0,0,26.9-25.9,28-11.6c0.5,6-19.3,21.6-21.2,27c-2.2,6.1,0.9,12.8,7,15c1.2,0.4,2.4,0.7,3.7,0.7c14.8,0.5,64-9.5,86.1-13.6  c4.1-0.8,9.1,5.9,5.9,8.5c-8.2,6.7-36.3,25.7-46.4,29.9c-13.6,5.6-41.3,21.4-79.4,21l-45.3,43.1c0,0-142.5,140.9-185.7,156.7  s-176.4,96.3-176.4,96.3L1116.3,1750.1z"></path>
<path class="st7" d="M1147.9,1735.1c0,0,10.9,34.9,29.5,51.2c21.8,19.1,58.2-0.1,58.2-0.1l-116.5,68.2l21.8-115.4L1147.9,1735.1z"></path>
<path class="st5" d="M1566.5,1659.7h867.3c2.1,0,3.8,1.7,3.8,3.8v278.9c0,2.1-1.7,3.8-3.8,3.8h-867.3c-2.1,0-3.8-1.7-3.8-3.8v-278.9  C1562.8,1661.4,1564.5,1659.7,1566.5,1659.7z"></path>
<path class="st10" d="M1881.2,1733h528.5c0.6,0,1,0.4,1,1v27.8c0,0.6-0.4,1-1,1h-528.5c-0.6,0-1-0.4-1-1V1734  C1880.2,1733.4,1880.7,1733,1881.2,1733z"></path>
<path class="st10" d="M1881.2,1802.9h312.6c0.6,0,1,0.4,1,1v27.8c0,0.6-0.4,1-1,1h-312.6c-0.6,0-1-0.4-1-1v-27.8  C1880.2,1803.4,1880.7,1802.9,1881.2,1802.9z"></path>
<ellipse transform="matrix(0.7071 -0.7071 0.7071 0.7071 -764.5863 1739.5481)" class="st10" cx="1717.5" cy="1792.7" rx="94.5" ry="94.5"></ellipse>
<path class="st19" d="M3591,1793.5c0,0,19.5,37.9,85.5-12.4c0,0,6.4-5.4,13.8,8.6s22.5,51.6,43.7,66.3s70.4,367.8,106.7,455.7  s16.4,167.2,16.4,167.2s-245.7,39.9-340.2-29.7l-4.9-288.8l-103.2-109.8l134.1-216.3C3542.9,1834.3,3569.2,1792,3591,1793.5z"></path>
<path class="st25" d="M3514.3,2145.5c0,0,30.8,5.6,41.8-2.2l79.5-124.5c0,0-44.1,82.7-56.6,194c-5.1,45.4-5.5,191.8-64.7,200.6  V2145.5z"></path>
<path class="st26" d="M3273.8,2151.1H3516c6.1,0,11,4.9,11,11v111.8c0,6.1-4.9,11-11,11h-242.2c-6.1,0-11-4.9-11-11v-111.8  C3262.8,2156.1,3267.7,2151.1,3273.8,2151.1z"></path>
<path class="st27" d="M3273.8,2283.5H3516c6.1,0,11,4.9,11,11v111.8c0,6.1-4.9,11-11,11h-242.2c-6.1,0-11-4.9-11-11v-111.8  C3262.8,2288.4,3267.7,2283.5,3273.8,2283.5z"></path>
<path class="st28" d="M2738.2,2668.7h242.2c6.1,0,11,4.9,11,11v111.8c0,6.1-4.9,11-11,11h-242.2c-6.1,0-11-4.9-11-11v-111.8  C2727.2,2673.6,2732.1,2668.7,2738.2,2668.7z"></path>
<path class="st5" d="M2693.4,2801.1h242.2c6.1,0,11,4.9,11,11v111.8c0,6.1-4.9,11-11,11h-242.2c-6.1,0-11-4.9-11-11v-111.8  C2682.4,2806,2687.3,2801.1,2693.4,2801.1z"></path>
<path class="st24" d="M2693.4,2933.4h242.2c6.1,0,11,4.9,11,11v111.8c0,6.1-4.9,11-11,11h-242.2c-6.1,0-11-4.9-11-11v-111.8  C2682.4,2938.4,2687.3,2933.4,2693.4,2933.4z"></path>
<path class="st9" d="M2619.9,3226.2l-242.2,0.7c-6.1,0-11-4.9-11-11l-0.3-111.8c0-6.1,4.9-11,11-11l242.2-0.7c6.1,0,11,4.9,11,11  l0.3,111.8C2630.9,3221.3,2626,3226.2,2619.9,3226.2z"></path>
<path class="st26" d="M2619.5,3093.8l-242.2,0.7c-6.1,0-11-4.9-11-11l-0.3-111.8c0-6.1,4.9-11,11-11l242.2-0.7c6.1,0,11,4.9,11,11  l0.3,111.8C2630.5,3088.9,2625.6,3093.8,2619.5,3093.8z"></path>
<path class="st27" d="M2619.2,2961.5l-242.2,0.7c-6.1,0-11-4.9-11-11l-0.3-111.8c0-6.1,4.9-11,11-11l242.2-0.7c6.1,0,11,4.9,11,11  l0.3,111.8C2630.2,2956.5,2625.3,2961.5,2619.2,2961.5z"></path>
<path class="st3" d="M3448.5,2061.7c0,0-84.8,255-103.2,291.9s-38.3,63.4-36.1,73.7s46.4,18.4,82.6,15.5c0,0,16.9-12.5,8.1-53.1  c0,0-6.7-24.7,19.2-60.4c46.4-64.1,73.7-137.8,73.7-137.8s32.4-67.1,45-100.2S3448.5,2061.7,3448.5,2061.7z"></path>
<path class="st7" d="M3443.7,2085.7c0,0,1.5,35.9,24.2,63.5s11.6,73.8,11.6,73.8l44.8-99.2L3443.7,2085.7z"></path>
<path class="st25" d="M3408.7,2053.6c0,0,42.8,34.4,66.3,69.6s81.1,20.1,81.1,20.1s65.6-129.5,89.2-141.3L3408.7,2053.6z"></path>
<path class="st8" d="M908.7,1801c0,0,13.2,12.9,108.1-24.9c8.3-3.3,108.9-50.9,108.9-50.9s34.3,2.2,28.7,121.6  c0,0,1.3,24.2,12.8,37.5l-78,49.8c0,0-4.9,276.9-55.8,430.6c0,0-281.6,2.8-411-96.7c0,0,168.2-493.1,225.7-567.1  s53.6,23.8,53.6,23.8S930.1,1764.3,908.7,1801z"></path>
<path class="st9" d="M833.9,1724.2c0,0,67.5,19.5,74.9,76.8c0,0,23.6-33.2-3.5-87.9S843.7,1704.9,833.9,1724.2z"></path>
<path class="st19" d="M972.1,1733c0,0-223.3,1.1-187.9-128.2c0,0-79.6-79.6,33.2-179.1s175.8-30.7,178-6.5c0,0-45.3-53.2-45.3-18.9  s58.6,64.1,39.8,121.6s-0.1,86.2,27,80.7c0,0-20.4,19.9-42.5,19.9s-49.8,17.7-11.1,47.5s31,63,31,63L972.1,1733z"></path>
<path class="st9" d="M1089.2,1934.2c0,0-39.1,14-45,30.2s26.4,212.3,26.4,212.3S1095.1,1954.8,1089.2,1934.2z"></path>
<path class="st7" d="M1323.7,1189.3c0,0-18-5.3-48.5,56.3C1275.2,1245.7,1287.9,1167.6,1323.7,1189.3z"></path>
<path class="st7" d="M1365.8,1166.7c0,0-20-28.2,21.1-41.6s50-20.7,50-20.7s-93,14.3-83,43  C1353.9,1147.4,1356.3,1159.8,1365.8,1166.7z"></path>
<path class="st7" d="M1555.3,1489.6c0,0-44.9,35.4,27.4,20.5C1582.7,1510.1,1533.5,1518.6,1555.3,1489.6z"></path>
<path class="st26" d="M1573.1,2040.3h177c6.1,0,11,4.9,11,11v177c0,6.1-4.9,11-11,11h-177c-6.1,0-11-4.9-11-11v-177  C1562.1,2045.2,1567.1,2040.3,1573.1,2040.3z"></path>
<path class="st9" d="M1842.5,2040.3h177c6.1,0,11,4.9,11,11v177c0,6.1-4.9,11-11,11h-177c-6.1,0-11-4.9-11-11v-177  C1831.5,2045.2,1836.4,2040.3,1842.5,2040.3z"></path>
<path class="st8" d="M2152.9,2058.8l162.5,70.1c5.6,2.4,8.2,8.9,5.7,14.5l-70.1,162.5c-2.4,5.6-8.9,8.2-14.5,5.7l-162.5-70.1  c-5.6-2.4-8.2-8.9-5.7-14.5l70.1-162.5C2140.9,2058.9,2147.4,2056.4,2152.9,2058.8z"></path>
<path class="st5" d="M3526.3,3116.4l112.4,22.9c0,0,9.6-3,5.9,16.6s-9.6,51.6-9.6,51.6l-128.2-20.3  C3506.8,3187.2,3506.8,3106.1,3526.3,3116.4z"></path>
<path class="st5" d="M3882.4,2874.6c0,0-35.6,91.9-71.9,109.4c0,0-25.9,8.6,54.4,43.2c0,0,67.1-93.6,63.4-131.9  C3928.4,2895.3,3877.7,2851.7,3882.4,2874.6z"></path>
<path class="st10" d="M949.9,3210.6h8.1c1.3,0,2.3,1,2.3,2.3v37c0,1.3-1,2.3-2.3,2.3h-8.1c-1.3,0-2.3-1-2.3-2.3v-37  C947.6,3211.6,948.6,3210.6,949.9,3210.6z"></path>
<path class="st10" d="M981.7,3225h8.1c1.3,0,2.3,1,2.3,2.3v33.4c0,1.3-1,2.3-2.3,2.3h-8.1c-1.3,0-2.3-1-2.3-2.3v-33.4  C979.4,3226,980.4,3225,981.7,3225z"></path>
<path class="st10" d="M1012.4,3235.5h8.1c1.3,0,2.3,1,2.3,2.3v28.8c0,1.3-1,2.3-2.3,2.3h-8.1c-1.3,0-2.3-1-2.3-2.3v-28.8  C1010.1,3236.6,1011.1,3235.5,1012.4,3235.5z"></path>
<path class="st10" d="M749.8,3206.4h8.1c1.3,0,2.3,1,2.3,2.3v37c0,1.3-1,2.3-2.3,2.3h-8.1c-1.3,0-2.3-1-2.3-2.3v-37  C747.5,3207.4,748.5,3206.4,749.8,3206.4z"></path>
<path class="st10" d="M781.6,3220.8h8.1c1.3,0,2.3,1,2.3,2.3v33.4c0,1.3-1,2.3-2.3,2.3h-8.1c-1.3,0-2.3-1-2.3-2.3v-33.4  C779.3,3221.8,780.3,3220.8,781.6,3220.8z"></path>
<path class="st10" d="M812.3,3231.3h8.1c1.3,0,2.3,1,2.3,2.3v28.8c0,1.3-1,2.3-2.3,2.3h-8.1c-1.3,0-2.3-1-2.3-2.3v-28.8  C810,3232.3,811,3231.3,812.3,3231.3z"></path>
<polygon class="st0" points="1423.6,1154.1 2241.2,917.1 2214.6,848.4 "></polygon>
<path class="st2" d="M3222.9,2127.3c-1.3-6.2-7.4-7-12.5-6.1c-14.8,2.3-24.1-5.6-33.9-15c-52.9-50.1-106-99.8-159.5-149.3  c-6.8-6.3-11.3-12.3-12.3-22.7c-2.2-24.4-23.7-33.8-45.1-21.2c-5.3,3.1-9.4,7.5-16.1,8.9c-25.8,5.4-44.2,21.6-59.9,42.1  c-9.7,12.6-8.5,20.2,7,25.4c5.9,2,11.2,5.5,16.8,8.3c-0.9,17.2,6.6,30,22,37c14.1,6.4,27.7,4.4,39.4-6.5c4.1,2,8.2,3.9,12.3,5.9  c24.5,12.2,24,12.1,31.3-14.5c4.4-16.2,2.5-32.8,3.5-51.7l162.4,152c-7.7,0.6-11.8,0.5-15.6,1.4c-8.2,2-11.5,8.1-4.1,12.9  c9.6,6.2,2.6,10.3-0.1,14.4c-39.5,61-79.2,122-119,182.8c-2.7,4.2-4.6,9.3-11,9.5c-6,0.1-12.7,1.1-11.1,9c1.5,7.4,8.8,5.5,14.2,5.7  c6,0.3,12.6-1.6,12.8,8.6c0.2,8.7-3.2,11.2-11.2,13c-25,5.9-44.2,20-55.9,43.4c25.7,5.6,51.7,2.1,77.5,2.2  c23.6,0.1,47.3,3.3,70.7-2.1c-12.2-23.8-31.7-38.4-57.5-44c-7.7-1.7-10.2-4.5-10.2-12.2c0.1-9.9,6.2-9,12.6-9  c10.9-0.1,21.6,0.1,10-15.4c-3-4,2.6-8,4.9-11.5c39.3-60.6,78.7-121.1,118.1-181.5c2.7-4.1,4.1-9.7,10.2-10.6  C3219.1,2135.9,3224.3,2133.9,3222.9,2127.3z M3190,2151c-38.2,59.1-77,117.8-114.7,177.1c-7.3,11.4-15.2,15.6-30.1,11l93.6-143.9  c9.6-14.8,20-29.1,28.5-44.4c6.8-12.3,15.3-17.3,28.9-13.1C3197.4,2143.6,3192.6,2146.9,3190,2151L3190,2151z"></path>
<path class="st8" d="M962.6,1081.4H421.7c-16,0-28.9,13-28.9,28.9v139.4c0,16,13,28.9,28.9,28.9h443.7l23,38.3l9.1-38.3h65.1  c16,0,28.9-13,28.9-28.9v-139.4C991.5,1094.4,978.5,1081.5,962.6,1081.4z"></path>
<path class="st10" d="M438.8,1117.4h506.6c1.7,0,3,1.3,3,3v10.6c0,1.7-1.3,3-3,3H438.8c-1.7,0-3-1.3-3-3v-10.6  C435.8,1118.7,437.2,1117.4,438.8,1117.4z"></path>
<path class="st10" d="M438.8,1149.1h506.6c1.7,0,3,1.3,3,3v10.6c0,1.7-1.3,3-3,3H438.8c-1.7,0-3-1.3-3-3v-10.6  C435.8,1150.4,437.2,1149.1,438.8,1149.1z"></path>
<path class="st10" d="M438.8,1180.8h308.9c1.7,0,3,1.3,3,3v10.6c0,1.7-1.3,3-3,3H438.8c-1.7,0-3-1.3-3-3v-10.6  C435.8,1182.1,437.2,1180.8,438.8,1180.8z"></path>
<path class="st8" d="M3595.9,1106.2h-411.9c-12.1,0-22,15.7-22,34.9v168.2c0,19.2,9.9,34.9,22,34.9h337.9l17.5,46.2l6.9-46.2h49.6  c12.1,0,22-15.7,22-34.9v-168.2C3617.9,1121.9,3608,1106.2,3595.9,1106.2z"></path>
<path class="st10" d="M3189.8,1149.7h353.1c1.5,0,2.6,1.2,2.6,2.6v9.2c0,1.5-1.2,2.6-2.6,2.6h-353.1c-1.5,0-2.6-1.2-2.6-2.6v-9.2  C3187.2,1150.9,3188.3,1149.7,3189.8,1149.7z"></path>
<path class="st10" d="M3189.8,1177.5h353.1c1.5,0,2.6,1.2,2.6,2.6v9.2c0,1.5-1.2,2.6-2.6,2.6h-353.1c-1.5,0-2.6-1.2-2.6-2.6v-9.2  C3187.2,1178.6,3188.3,1177.5,3189.8,1177.5z"></path>
<path class="st10" d="M3189.8,1205.2h214.9c1.5,0,2.6,1.2,2.6,2.6v9.2c0,1.5-1.2,2.6-2.6,2.6h-214.9c-1.5,0-2.6-1.2-2.6-2.6v-9.2  C3187.2,1206.4,3188.3,1205.2,3189.8,1205.2z"></path>
<path class="st8" d="M3759.7,1295.6c-1.7-9-3.5-18-7.4-26.4c-3.9-8.3-8.5-16.3-13.7-23.9c-11.4-16.5-14.2-34.5-7.5-53.5  c6.1-17.4,18.2-29.2,35.4-35.7c30.5-11.6,66.2,5.9,76,37.2c6.1,19.6,2.5,37.4-9.3,54c-9.5,13.5-16.8,28-18.8,44.7  c-0.2,1.3-0.6,2.5-1,3.7c-3.8-0.1-7.6-0.2-11.4-0.2C3787.9,1295.4,3773.8,1295.5,3759.7,1295.6z M3824.2,1214.4c0-2.7,0-5.5-2.7-6.8  s-5-0.4-7.5,1.2c-6.2,4.1-7.4,11-9.6,17.2c-1.7,4.7-5.4,7.4-10,4.9c-2.5-1.3-3.4-3.1-1.2-5.5c0.8-0.8,1.5-1.8,2-2.8  c2.3-4.6,1.2-12.1-2.7-15.1c-1.6-1.3-3.7-3.3-6.2-2.3c-3.8,1.5-6.4,4.2-6.6,8.5c-0.3,4-0.1,7.9,2.7,11.2c1.1,1.3,1.6,2.9-0.1,4  c-2.3,1.4-4.5,3.1-7.3,3.3c-3,0.2-5.6-0.2-6.6-4.1s-2.8-7.3-4.3-11s-4.5-6.1-8.1-7.8c-1-0.6-2.3-0.4-3.2,0.4  c-4.6,3.3-5.3,8.3-2.1,13c2.6,3.8,6.4,6.2,10,8.8c2,1.4,4.2,2.9,4.6,5.4c0.8,4.3,2.5,8.2,3.2,12.5c1.3,7.9,2.7,15.8,4.3,23.7  c1.2,5.9,1.1,12.1,2,18.2c0.2,1.4,0.4,2.7,2.1,2.5s1.1-1.6,1-2.7c-0.6-8.7-0.9-17.4-2.8-26c-1.8-8.2-1.8-16.8-4.7-25  c-0.8-2.1,0.3-3.4,2.8-3.3c3.2,0.2,6.3-0.7,9-2.5c1.6-1.1,3.6-2.4,5.7-1.1c3,1.8,6.4,2.6,9.9,2.4c3.1-0.2,3.6,1.2,3.4,4.3  c-0.4,5.9-1.3,11.7-2.2,17.4c-1.1,6.8-0.3,13.8-3.1,20.3c-1.8,4.2-0.7,9.1-2.6,13.4c-0.5,1-0.1,2.1,0.9,2.6c0.3,0.1,0.6,0.2,0.9,0.2  c1.2,0.1,2.7-0.2,2.5-1.6c-0.5-4,2.3-6.9,2.6-10.6c0.9-9.6,1.9-19.2,3.6-28.7c0.5-2.9,1.8-5.6,1.6-8.6c-0.4-6.2,2.4-10,7.8-13.2  C3819.6,1227.4,3823.7,1221.8,3824.2,1214.4L3824.2,1214.4z"></path>
<path class="st29" d="M3759.7,1295.6c14.1-0.1,28.2-0.2,42.3-0.2c3.8,0,7.6,0.2,11.4,0.2c5.5,3.5,5.7,7.2,0.8,12.4  c4.6,4.4,4.7,7.2,0,12.3c2.9,2,4.3,4.7,3,8.2s-4.4,4.4-7.8,4.1c-1.7-0.2-3.3,0.6-4.1,2.2c-0.1,0.1-0.2,0.2-0.2,0.3  c-5,10.5-14.1,11.8-24.2,10.7c-3.2-0.2-6.2-1.8-8.2-4.3c-1.6-2-3.1-4-4.5-6.2c-1.2-1.9-2.6-2.9-5-2.7c-3.4,0.3-6.1-0.8-7.3-4.2  s0.3-5.9,3.2-8.1c-1.7-1.8-3.7-3.5-3.6-6.3c0.1-2.5,1.5-4.7,3.6-5.9C3753.9,1302.7,3754.1,1299.1,3759.7,1295.6z"></path>
<path class="st8" d="M3782.9,1120.3c0.5-4.9-0.7-10,0.8-14.8c0.5-1.5,0.6-3.6,2.8-3.6s2.6,1.9,3,3.4c0.4,1.2,0.6,2.5,0.6,3.7  c-0.1,7-0.2,14-0.4,21c0,1-0.2,2-0.4,3c-0.4,1.7-1.1,3.3-3.2,3.1s-3.1-1.7-3.2-3.7C3782.9,1128.4,3782.9,1124.3,3782.9,1120.3z"></path>
<path class="st8" d="M3707.3,1297.7c-1.7-0.3-2.6-1.4-2.2-3.2c0.4-1.8,1.3-3.4,2.6-4.6c5.6-5.4,11.2-10.8,16.9-16.1  c1.4-1.3,3.2-3.1,5.3-1.1s1.1,4.1-0.6,5.7c-5.8,5.7-11.6,11.4-17.6,17C3710.5,1296.6,3709,1297.4,3707.3,1297.7z"></path>
<path class="st8" d="M3868.4,1137.4c-0.1,1.3-0.7,2.5-1.7,3.3c-6,5.9-12,11.8-18,17.7c-0.4,0.4-0.8,0.7-1.2,0.9  c-1.5,0.8-3.2,1.6-4.6,0c-1.3-1.4-0.4-2.8,0.4-4.2c2.1-3.8,5.6-6.2,8.7-9.1c3.6-3.4,6.7-7.4,10.8-10.3  C3865.4,1133.9,3868.3,1134.8,3868.4,1137.4z"></path>
<path class="st8" d="M3864.9,1297.8c-1.7,0-2.9-1.2-3.9-2.2c-5.4-5.4-10.8-10.8-15.9-16.4c-1.6-1.7-4.3-4.1-1.8-6.5  c2.4-2.2,4.8,0.1,6.5,1.8c5.7,5.7,11.2,11.5,16.7,17.3c1.1,1.2,2.2,2.6,1.2,4.4C3867.2,1297.3,3866,1297.9,3864.9,1297.8z"></path>
<path class="st8" d="M3707.3,1134.8c2,0,3.9,0.9,5.2,2.4c5.7,5.8,11.3,11.8,16.9,17.7c1.3,1.4,2,3,0.3,4.7c-1.8,1.9-3.5,1.1-5-0.4  c-5.8-5.8-11.5-11.6-17.2-17.4c-0.9-1-1.7-2.3-2.2-3.6C3704.4,1135.9,3705.6,1134.9,3707.3,1134.8z"></path>
<path class="st8" d="M3689.5,1219.3c-3.7,0-7.4,0.1-11.1,0c-1.3,0-2.5-0.2-3.7-0.7c-1.2-0.4-2.4-1.2-2.3-2.7s1.2-2.2,2.5-2.6  c1.5-0.4,3-0.7,4.5-0.7c7.5,0.1,15,0.2,22.6,0.4c2.1,0,4.4,0.3,4.4,3.1c0.1,3.1-2.3,3.3-4.6,3.3c-4.1,0.1-8.2,0-12.2,0  L3689.5,1219.3z"></path>
<path class="st8" d="M3884.1,1219.4c-4.1,0-8.2,0.1-12.3,0c-2.1-0.1-4.8-0.2-5-3.1c-0.2-3,2.6-3.3,4.7-3.4c8.7,0,17.4,0.2,26,0.4  c1.9,0,3.2,1,3.2,3.1s-1.4,2.8-3.2,3C3893,1219.8,3888.5,1219.5,3884.1,1219.4z"></path>
<path class="st10" d="M3824.2,1214.4c-0.5,7.4-4.6,13-10.7,16.6c-5.3,3.2-8.2,7-7.8,13.2c0.2,3-1.1,5.7-1.6,8.6  c-1.7,9.5-2.7,19.1-3.6,28.7c-0.4,3.7-3.2,6.7-2.6,10.6c0.2,1.4-1.3,1.7-2.5,1.6c-1.1,0-1.9-0.9-1.9-1.9c0-0.3,0.1-0.6,0.2-0.9  c1.9-4.3,0.8-9.2,2.6-13.4c2.8-6.5,2-13.6,3.1-20.3c0.9-5.7,1.8-11.6,2.2-17.4c0.2-3.1-0.3-4.4-3.4-4.3c-3.5,0.3-6.9-0.6-9.9-2.4  c-2.1-1.3-4.1,0-5.7,1.1c-2.7,1.8-5.8,2.6-9,2.5c-2.4-0.1-3.5,1.2-2.8,3.3c2.9,8.1,2.9,16.7,4.7,25c1.9,8.7,2.2,17.3,2.8,26  c0.1,1.1,0.8,2.5-1,2.7s-1.9-1.1-2.1-2.5c-0.9-6-0.8-12.3-2-18.2c-1.7-7.8-3.1-15.8-4.3-23.7c-0.7-4.3-2.4-8.3-3.2-12.5  c-0.4-2.5-2.6-4-4.6-5.4c-3.6-2.6-7.4-4.9-10-8.8c-3.2-4.7-2.5-9.6,2.1-13c0.9-0.8,2.1-0.9,3.2-0.4c3.6,1.7,6.5,4,8.1,7.8  s3.4,7.2,4.3,11s3.6,4.3,6.6,4.1c2.7-0.2,5-1.9,7.3-3.3c1.7-1,1.2-2.7,0.1-4c-2.8-3.3-3-7.2-2.7-11.2c0.3-4.3,2.9-7,6.6-8.5  c2.5-1,4.5,1.1,6.2,2.3c3.9,3,5,10.5,2.7,15.1c-0.5,1-1.2,1.9-2,2.8c-2.1,2.4-1.2,4.2,1.2,5.5c4.6,2.4,8.3-0.2,10-4.9  c2.2-6.1,3.4-13.1,9.6-17.2c2.5-1.7,4.9-2.4,7.5-1.2S3824.2,1211.7,3824.2,1214.4z M3819.5,1214.9c-0.1-1.1,0-2.2-1.1-2.7  s-1.7,0.3-2.3,1c-3.2,3.6-4.9,8-7.1,12.1c-0.5,1-0.2,2.1,0.6,2.8c0.8,0.5,1.8,0.4,2.5-0.3  C3816.4,1224.6,3818.6,1220.1,3819.5,1214.9L3819.5,1214.9z M3784.2,1217.5c-0.2,2.1-0.1,5.4,2.4,6.4c1.8,0.7,3.6-2.1,4.6-3.9  c1.6-2.8,0.8-5.6-1.2-8.1c-0.9-1.2-2.1-2.2-3.6-1.4C3783.9,1211.8,3784.3,1214.5,3784.2,1217.5L3784.2,1217.5z M3755.1,1213.6  c-1.3,0.3-2.3,1.2-2.9,2.4c-0.6,0.8-1.1,1.9-0.1,2.8c2.2,2.1,4.5,4.1,6.8,6.1c0.7,0.7,1.7,0.7,2.4,0.1c0.5-0.4,0.7-1.1,0.4-1.7  c-1.6-1.9-1.6-4.5-2.9-6.5C3758,1215.2,3756.7,1214.1,3755.1,1213.6L3755.1,1213.6z"></path>
<path class="st8" d="M3819.5,1214.9c-0.9,5.2-3.1,9.6-7.4,12.8c-0.7,0.7-1.7,0.8-2.5,0.3c-0.9-0.6-1.2-1.8-0.6-2.8  c2.2-4.1,4-8.5,7.1-12.1c0.6-0.7,1.3-1.4,2.3-1S3819.4,1213.9,3819.5,1214.9z"></path>
<path class="st8" d="M3784.2,1217.5c0.1-3-0.4-5.7,2.3-7c1.5-0.8,2.6,0.3,3.6,1.4c2,2.5,2.8,5.3,1.2,8.1c-1,1.8-2.8,4.6-4.6,3.9  C3784.1,1222.9,3784,1219.6,3784.2,1217.5z"></path>
<path class="st8" d="M3755.1,1213.6c1.6,0.6,2.9,1.7,3.6,3.1c1.3,2,1.4,4.6,2.9,6.5c0.3,0.6,0.2,1.3-0.4,1.7  c-0.7,0.6-1.8,0.6-2.4-0.1c-2.3-2-4.6-4-6.8-6.1c-0.9-0.9-0.4-1.9,0.1-2.8C3752.8,1214.8,3753.9,1213.9,3755.1,1213.6z"></path>
</svg>