<svg xmlns="http://www.w3.org/2000/svg" xmlns:xlink="http://www.w3.org/1999/xlink" id="Layer_1" x="0px" y="0px" viewBox="0 0 3284.1 2682.7" style="enable-background:new 0 0 3284.1 2682.7;" xml:space="preserve">
<style type="text/css">
	.st0{fill:#EEEEEE;}
	.st1{fill:none;stroke:#8FC0FA;stroke-width:7;stroke-miterlimit:10;}
	.st2{fill:none;stroke:#92C5F7;stroke-width:7;stroke-miterlimit:10;stroke-dasharray:31.13,31.13;}
	.st3{fill:none;stroke:#92C5F7;stroke-width:7;stroke-miterlimit:10;stroke-dasharray:31.95,31.95;}
	.st4{fill:none;stroke:#92C5F7;stroke-width:7;stroke-miterlimit:10;stroke-dasharray:32.82,32.82;}
	.st5{fill:none;stroke:#92C5F7;stroke-width:7;stroke-miterlimit:10;stroke-dasharray:31,31;}
	.st6{fill:#FFFFFF;}
	.st7{fill:#C7DEFE;}
	.st8{clip-path:url(#SVGID_2_);}
	.st9{fill:#F3F6FC;}
	.st10{fill:#33658A;}
	.st11{opacity:0.37;fill:#FFFFFF;enable-background:new    ;}
	.st12{fill:#F9C89A;}
	.st13{fill:#F3A566;}
	.st14{fill:#302525;}
	.st15{fill:#F78F20;}
	.st16{fill:#F6A538;}
	.st17{fill:#2D4754;}
	.st18{fill:#553130;}
	.st19{fill:#3A1616;}
	.st20{opacity:0.3;fill:#FFFFFF;}
	.st21{fill:#F95F35;}
	.st22{fill:#BA1717;}
	.st23{opacity:0.3;}
	.st24{fill:#E27B1E;}
	.st25{fill:#003E61;}
	.st26{opacity:0.2;}
	.st27{fill:#192126;}
	.st28{fill:#FFFFFF;stroke:#F78F20;stroke-width:8;stroke-miterlimit:10;}
	.st29{fill:#FFFFFF;stroke:#33658A;stroke-width:8;stroke-miterlimit:10;}
	.st30{fill:#6A889B;}
</style>
<path class="st0" d="M1258.3,2522.3c0,0-1191.9-61.8-1097.3-1314.2S1486.7-32.5,1888.2,447.5S3213.9,678.8,3171.6,1566  S1897.2,2619.1,1258.3,2522.3z"></path>
<line class="st1" x1="819.4" y1="1545" x2="815.2" y2="1529.5"></line>
<line class="st2" x1="807" y1="1499.5" x2="680.7" y2="1033.8"></line>
<polyline class="st1" points="676.7,1018.8 672.5,1003.4 688.1,999.8 "></polyline>
<line class="st3" x1="719.2" y1="992.6" x2="2011.4" y2="695.3"></line>
<polyline class="st1" points="2027,691.7 2042.6,688.1 2054.6,698.6 "></polyline>
<line class="st4" x1="2079.4" y1="720.2" x2="2709.9" y2="1270.6"></line>
<polyline class="st1" points="2722.3,1281.4 2734.3,1292 2726.2,1305.8 "></polyline>
<line class="st5" x1="2710.6" y1="1332.5" x2="2405.2" y2="1854.3"></line>
<line class="st1" x1="2397.4" y1="1867.7" x2="2389.3" y2="1881.5"></line>
<path class="st6" d="M1036.6,943.7H2313c23.2,0,41.9,18.8,41.9,41.9v838.9c0,23.2-18.8,41.9-41.9,41.9H1036.6  c-23.2,0-41.9-18.8-41.9-41.9V985.7C994.7,962.5,1013.5,943.7,1036.6,943.7z"></path>
<path class="st7" d="M1106.1,1149.3h304.5c3.1,0,5.6,2.5,5.6,5.7V1727c0,3.1-2.5,5.7-5.6,5.7h-304.5c-3.1,0-5.7-2.5-5.7-5.7v-572.1  C1100.4,1151.8,1103,1149.3,1106.1,1149.3z"></path>
<g>
	<defs>
		<path id="SVGID_1_" d="M1106.1,1149.3h304.5c3.1,0,5.6,2.5,5.6,5.7V1727c0,3.1-2.5,5.7-5.6,5.7h-304.5c-3.1,0-5.7-2.5-5.7-5.7    v-572.1C1100.4,1151.8,1103,1149.3,1106.1,1149.3z"></path>
	</defs>
	<use xlink:href="#SVGID_1_" style="overflow:visible;fill:#EEEEEE;"></use>
	<clipPath id="SVGID_2_">
		<use xlink:href="#SVGID_1_" style="overflow:visible;"></use>
	</clipPath>
	<g class="st8">
		<path class="st0" d="M1106.1,1149.3h304.5c3.1,0,5.6,2.5,5.6,5.7V1727c0,3.1-2.5,5.7-5.6,5.7h-304.5c-3.1,0-5.7-2.5-5.7-5.7    v-572.1C1100.4,1151.8,1103,1149.3,1106.1,1149.3z"></path>
	</g>
</g>
<rect x="1457.7" y="1149.3" class="st9" width="753.4" height="14.3"></rect>
<rect x="1457.7" y="1179" class="st9" width="753.4" height="14.3"></rect>
<rect x="1457.7" y="1208.7" class="st9" width="753.4" height="14.3"></rect>
<rect x="1457.7" y="1238.4" class="st9" width="753.4" height="14.3"></rect>
<rect x="1457.7" y="1268.1" class="st9" width="753.4" height="14.3"></rect>
<rect x="1457.7" y="1297.8" class="st9" width="753.4" height="14.3"></rect>
<path class="st10" d="M2337.5,878.3c-9.9-7.7-22.2-11.9-34.8-11.8H1046.9c-29.5,0-53.6,22.1-53.6,49.2v903c0,22.2,16,41,38,47.1  c5.1,1.4,10.3,2.1,15.5,2.1h1255.8c29.5,0,53.6-22.1,53.6-49.2v-903C2356.2,900.7,2349,887.3,2337.5,878.3z M2343.5,1818.6  c0,20.7-18.3,37.5-40.9,37.5H1046.9c-2.4,0-4.9-0.2-7.3-0.6c-19.1-3.1-33.6-18.5-33.6-36.9v-815.2h1337.5V1818.6z"></path>
<path class="st6" d="M2055.2,969.1h-575.5c-18.6,0-33.6-13.8-33.6-30.8l0,0c0-17,15-30.8,33.6-30.8h575.5  c18.6,0,33.6,13.8,33.6,30.8l0,0C2088.8,955.3,2073.7,969.1,2055.2,969.1z"></path>
<path class="st6" d="M1046.7,955.5c-1.7,0-3.3-0.6-4.5-1.7c-2.3-2-2.5-5.5-0.5-7.8c0.2-0.2,0.3-0.3,0.5-0.5l30.7-28.2  c2.6-2.3,6.5-2.3,9.1,0c2.3,2,2.5,5.5,0.5,7.8c-0.2,0.2-0.3,0.3-0.5,0.5l-30.7,28.2C1050,954.9,1048.4,955.5,1046.7,955.5z"></path>
<path class="st6" d="M1077.4,955.5c-1.7,0-3.3-0.6-4.5-1.7l-30.7-28.2c-2.3-2-2.5-5.5-0.5-7.8c0.2-0.2,0.3-0.3,0.5-0.5  c2.6-2.3,6.5-2.3,9.1,0l30.7,28.2c2.3,2,2.5,5.5,0.5,7.8c-0.2,0.2-0.3,0.3-0.5,0.5C1080.7,954.9,1079.1,955.5,1077.4,955.5z"></path>
<path class="st6" d="M1208.1,915.5c-12,0-21.8,9-21.8,20c0,2.8,0.7,5.7,1.9,8.2c3.4,6.9,11,11.8,19.8,11.8s16.4-4.8,19.8-11.8  c1.3-2.6,1.9-5.4,1.9-8.2C1229.9,924.5,1220.1,915.5,1208.1,915.5z M1199.1,935.5c0-4.5,4-8.2,9-8.2s8.9,3.7,8.9,8.2s-4,8.2-8.9,8.2  S1199.1,940,1199.1,935.5L1199.1,935.5z"></path>
<path class="st6" d="M1149.5,941.4h-32.9c-3.2,0.3-6.1-2.1-6.4-5.4s2.1-6.1,5.4-6.4c0.3,0,0.6,0,1,0h32.9c3.2-0.3,6.1,2.1,6.4,5.4  s-2.1,6.1-5.4,6.4C1150.2,941.4,1149.9,941.4,1149.5,941.4z"></path>
<path class="st11" d="M2337.5,878.3l-53.7,65.5l-48.9,59.7L1829,1498.8l-29.6,36.1l-1.5,1.9l-29.6,36.1l-232.1,283.3l-8.6,10.4  l-1,1.2h-479.7c-5.3,0-10.5-0.7-15.5-2.1l0.6-0.8l7.7-9.4l613.5-751.1l21.4-26.2l61.2-74.9l28-34.2l20.8-25.4l29.6-36.3l33.5-41h455  C2315.3,866.4,2327.5,870.5,2337.5,878.3z"></path>
<polygon class="st11" points="1449.4,866.4 1376.9,943.7 1320.9,1003.4 1006.1,1339 994.7,1351.1 993.4,1352.5 993.4,1228.1   994.7,1226.6 1006.1,1213.9 1194,1003.4 1247.2,943.7 1316.2,866.4 "></polygon>
<rect x="1467.2" y="1359.5" class="st0" width="743.9" height="373.2"></rect>
<polygon class="st6" points="1784.3,1451.9 1784.3,1627 1941.2,1539.5 "></polygon>
<path class="st12" d="M1416.8,1469.4c-3.2,8.2-22.2-4.8-31.6,11.6s-23.4,44.5-39.8,47.2s-65.1-16.2-65.1-16.2  c-1.9,7-12.6,30.4-8.8,39.8c2.2,5.4,9.2,11,14.8,14.8c4.2,2.9,7.7,4.8,7.7,4.8s25.6,17.1,16.8,31.6s-80.3,34.2-98.6,17.7  s-41.7-75.2-41.7-75.2l8.8-11.1c1.3-0.8,2.6-1.7,3.9-2.7c6.4-5,19-16.6,23.7-34.8c2.5-10,2.3-20.5-0.3-30.4  c-8.2-32.4,1.7-83.9,30.7-107c11.2-8.9,25.2-13.6,42.1-11.3c60.7,8.2,106.2,8.8,106.2,8.8s15.2,38.6,10.1,67  S1419.9,1461.2,1416.8,1469.4z"></path>
<path class="st13" d="M1310.5,1603c-8.8,14.5-80.3,34.2-98.6,17.7s-41.7-75.2-41.7-75.2l8.8-11.1c1.3-0.8,2.6-1.7,3.9-2.7  c40.8,62.1,87.5,69.4,100.2,62.2s3.1-27.2,3.1-27.2c4.2,2.9,7.7,4.8,7.7,4.8S1319.4,1588.5,1310.5,1603z"></path>
<path class="st12" d="M2210.6,1589.7c-2.2,14.5-98.3,17.7-93.9-12c0.5-3.9,0.7-7.7,0.4-11.6c-1.6-27.5-19.6-58.3-20.7-63.3  c-1.3-5.7-39.2,5.1-59.4,5.1s-34.2-46.2-36.4-55.4s-12-8.8-18-16.4s25.9-26.6,27.8-54.1s19.3-62,19.3-62s111.6,6.3,143.2,25.9  s7.9,69.2,9.5,111.9c1,27.9,10.6,65.5,17.1,88.2c3.4,12,6,19.9,6,19.9S2212.9,1575.2,2210.6,1589.7z"></path>
<path class="st13" d="M2210.6,1589.7c-2.2,14.5-98.3,17.7-93.9-12c0.5-3.9,0.7-7.7,0.4-11.6c0.6,0.2,31.1,13.1,54.6-2.3  c9.8-6.4,19.6-12.6,27.8-17.7c3.4,12,6,19.9,6,19.9S2212.9,1575.2,2210.6,1589.7z"></path>
<path class="st13" d="M2021.6,1338.9c0,0,27.7,12.1,51.3,17.1s39.8,31,42.4,48.7s11,10.4,11,10.4s1.4-34.3,8.4-38.7s31-4.8,36,11.7  s3.4,23.2,3.4,23.2s-11.6,53-4.7,65s16.6,12.1,16.6,12.1l-2.4-17.6c0,0,22.6-113.3-3.3-128.8s-97.1-30-120.1-27.2  c-13.8,1.7-26.5,8.1-36.1,18.1L2021.6,1338.9z"></path>
<path class="st14" d="M2122.1,1409.9c0,0-1-40.8-25.6-54.7s-181.9-24.7-131.7-124.2s125.8-10.3,120.6,48.1s103.2-18.2,137.9,70  s-38.9,129.3-38.9,129.3s-11.4,6.4-11.4-9.8s1.9-34.2,1.9-34.2s5.5-57.3-30.6-49.3c0,0-11.2,0.6-14.8,20.2  S2122.1,1409.9,2122.1,1409.9z"></path>
<path class="st15" d="M2484.1,2195.5c-4.5,1.2-9,2.1-13.6,2.7c-17.3,2.4-34.8,2.5-52.2,0.5h-338.3c0,0-19.6-261.8-19.6-290.9  c0,0-30.2,38.3-91.4,37.8c-74.6-0.6-184.3-25.8-184.3-25.8s-2.5-50,4.4-65.8c0,0,148.6,0.6,160-13.3s117.6-185.9,139.8-203.6  s11.5-74.9,28.4-67.2c0,0,30.9,27.8,85.1-14.3c0,0,5.4-9.6,13.7,1.4S2453.8,1753.5,2484.1,2195.5z"></path>
<path class="st16" d="M2060.5,1907.8c0,0,85.1-152.9,91.7-149.6s-44.7,210.3-86.6,237.7L2060.5,1907.8z"></path>
<path class="st16" d="M2470.5,2198.2c-17.3,2.4-34.8,2.5-52.2,0.5c0.6-221.6-74.6-426.2-74.6-426.2  C2345.4,1686.4,2446.5,2099,2470.5,2198.2z"></path>
<path class="st12" d="M1790.8,1914.3c-27.5-10-111.4,19.4-134.2,11.4c-3.7-1.3-7.1-3.1-10.3-5.4c-16-11.2-24.3-31.1-24.3-31.1  l-4.3-9c0,0,56.9-41.3,76.4-44.1c16.3-2.4,70.7,17.1,87.8,23.4c3.3,1.2,5.2,1.9,5.2,1.9S1818.3,1924.3,1790.8,1914.3z"></path>
<path class="st13" d="M1712.8,1845.2c0,0,16.9,18.1,14.6,25.7s-20,6.8-33.7,1.8s-67.6,24.6-67.6,24.6l-4.2-5.6l74.3-36.6  L1712.8,1845.2z"></path>
<path class="st12" d="M1723.4,1870.8c-15.6,5.9-30.9-2.6-31.3-2.8l0,0c-12.3-1.6-67.9,25.9-67.9,25.9c-1.2-1.2-2.6-2.5-4.1-3.7  c-5-4.1-10.4-7.8-16.1-11.1c-10.3-6-21.1-11.3-32.1-15.8c-29.7-25,13.3-51.8,13.3-51.8s13.2,7.3,27.5,14.5  c13.3,6.6,27.6,13.1,33.2,13.4c11.7,0.6,45.2-7.3,54.4-11.7s11.1,23.7,20.2,31.9S1723.4,1870.8,1723.4,1870.8z"></path>
<path class="st13" d="M1692.1,1868c-21.8,3.3-67.9,25.9-67.9,25.9c-1.2-1.2-2.6-2.5-4.1-3.7c3.6-2.6,8.9-5.5,17-8.7  c31-12.1,40.1-35,43.3-28.8S1692.1,1868,1692.1,1868z"></path>
<path class="st13" d="M1790.8,1914.3c-27.5-10-111.4,19.4-134.2,11.4c-3.7-1.3-7.1-3.1-10.3-5.4c6.2,0.9,19.9,1.4,26.1-4.5  c34.4-32.6,64.9-26.5,83.5-24c17.3,2.3,25.9-32.3,25.9-32.3c3.3,1.2,5.2,1.9,5.2,1.9S1818.3,1924.3,1790.8,1914.3z"></path>
<path class="st12" d="M1678,1927.7c0,0,10,14.9,38.2,5.5s33.2-12.7,31.3-29.8S1665.1,1909,1678,1927.7z"></path>
<path class="st13" d="M1604.1,1879.1c-10.3-6-21.1-11.3-32.1-15.8c-29.7-25,13.3-51.8,13.3-51.8s13.2,7.3,27.5,14.5  C1607.1,1834.6,1599.1,1852.3,1604.1,1879.1z"></path>
<path class="st10" d="M1602.9,1820.8c0,0-25.5,15.6-15.7,49.3c0,0,1.9,4.9-5.4,4.9s-86-31.3-123.9-50.3s-128.1-63.9-128.1-63.9  s-34.5,378.5-28.1,431.6H930.5c0,0-6.6-268.3,9.5-310.9s-19.8-100.1-19.8-100.1s87.1-202.3,139.3-225.1s119.5-21.8,119.5-21.8  s15.2,42.2,52.2,62.6s80.6,0,62.6-25.6c0,0-1.4-8.1,8.1-1.9s78.9,56.9,116.8,109.4c31.6,43.8,152.8,111.6,180.4,134.3  C1604.5,1817.7,1606.3,1820.4,1602.9,1820.8z"></path>
<path class="st17" d="M1117.3,1686.2c0,0-60.2,125.7-65.4,134.2s65.4,1.9,65.4,1.9s-26.6-4.3-16.1-43.6S1139.2,1665.8,1117.3,1686.2  z"></path>
<path class="st17" d="M1602.9,1820.8c0,0-25.5,15.6-15.7,49.3c0,0,1.9,4.9-5.4,4.9s-86-31.3-123.9-50.3s-128.1-63.9-128.1-63.9  s5.4-52.1,17.7-63.8s-12.7,55,32.2,79c44.9,24,197.6,96.1,200,80c1.9-12.8,4.8-35.8,19.3-42.8  C1604.5,1817.7,1606.3,1820.4,1602.9,1820.8z"></path>
<path class="st0" d="M1251.6,1935.6c0.9,21.8-2,51.6-5.5,78c-4.4,33.5-9.8,61.7-9.8,61.7l-68.4-6.3l4.6-13.2l55.9-160.4l12.4-35.6  l5.9,1l15.8,2.7C1262.4,1863.4,1249.6,1886.3,1251.6,1935.6z"></path>
<path class="st6" d="M1250.2,1845.9c0,0-1.4,5.4-3.6,14.9c-7.4,32.6-13,65.6-16.6,98.8l0,0c-3.4,32.8-4.8,68.3-1,100  c0,0-22.9-1.3-56.6-3.8c-84.6-6.1-237.6-19.2-269.4-35.4c-36.8-18.8-30.6-172.8-27.4-225.7c0.7-11.1,1.2-17.8,1.2-17.8  S1188.4,1795.3,1250.2,1845.9z"></path>
<path class="st0" d="M1215.1,2058.2c-84.6-6.1-280.2-21.6-312.1-37.9c-36.8-18.8-30.6-172.8-27.4-225.7c0,0,345,46.7,351.1,61.3  c2.6,6.1,2.2,21.8,1.5,39.4C1227.3,1919.4,1215.1,2058.2,1215.1,2058.2z"></path>
<path class="st16" d="M1217.3,1873.2l-15.8,184.6l-0.8,9.1c-0.7,7.8-6.8,13.5-13.7,12.7l-340-39.7c-6.9-0.8-11.9-7.9-11.1-15.8  l22.1-208.9c0.8-7.9,7.2-13.4,14.1-12.3l172.3,28.2l162.1,26.6C1213.3,1858.9,1217.9,1865.7,1217.3,1873.2z"></path>
<path class="st15" d="M1201.5,2057.8l-0.8,9.1c-0.7,7.8-6.8,13.5-13.7,12.7l-131.1-15.3l-78.9-9.2l-130-15.2  c-6.9-0.8-11.9-7.9-11.1-15.8l22.1-208.9c0.8-7.9,7.2-13.4,14.1-12.3l44.8,7.3l18.6,3l108.9,17.8  C1044.5,1831.2,1081.1,1987.8,1201.5,2057.8z"></path>
<path class="st12" d="M1152.6,2077.5c-0.7,6.8-15.4,9-15.4,9s0.8,0.4,2,1.1l0,0c1.6,1,3.8,2.6,4.7,4.6c1.4,3.3-15.7,10-15.7,10  s-14.2,5.7-18.5,6.2s-28.4-1.4-35.6-5.7s-39.4-21.8-50.6-36.5c-6.9-9.1-33.2-50.6-52.5-81.3l0,0c0,0,0,0,0-0.1  c-12-19.1-21.2-34-21.2-34c-3.4-30.4,49.9-63.5,68.8-47.4c6.3,5.4,10.4,15.6,13.3,27.6c5.9,24.1,7,55,11.8,66.7  c7.1,17.6,78.7,29.4,84.9,46s18.5,20.9,23.2,30.3C1152.5,2075.1,1152.7,2076.3,1152.6,2077.5z"></path>
<path class="st13" d="M1137.3,2086.5c0,0-19.6-18.6-26.8-30.4c-6.6-10.8,18.1,18.8,42.1,21.5  C1151.9,2084.2,1137.3,2086.5,1137.3,2086.5z"></path>
<path class="st13" d="M1032,1931.1c0,0-52.8-0.4-59.2,22.9c-6.1,22-2.2,29.9-1.8,30.7c-12-19.1-21.2-34-21.2-34  c-3.4-30.4,49.9-63.5,68.8-47.4C1025,1908.7,1029.1,1919.1,1032,1931.1z"></path>
<path class="st10" d="M920.2,1781.4c0,0-28.3,53.1-19.4,78.4s44.9,95.5,44.9,95.5s40.8-48.5,84.4-27.7c0,0,9.5,6.2,9.8,2.1  s-22.1-65.4-19.9-72.1s44.6-62.2,44.6-62.2S965.6,1763,920.2,1781.4z"></path>
<path class="st13" d="M1128.3,2102.1c0,0-14.2,5.7-18.5,6.2s-28.4-1.4-35.6-5.7c22.6,1.6,63.1-16.1,63.1-16.1s0.8,0.4,2,1.1l0,0  c1.6,1,3.8,2.6,4.7,4.6C1145.3,2095.5,1128.3,2102.1,1128.3,2102.1z"></path>
<path class="st13" d="M1268.9,1460.6c-10.8-2-18.9-11.5-30-0.1s-13.8,30.8-32.4,36.4c2.5-10,2.3-20.5-0.3-30.4  c-8.2-32.4,1.7-83.9,30.7-107c14.7,18.1,25.2,43.6,25.2,43.6s-15.6,6.4-5.2,33.6s24.9,17.9,24.9,17.9S1280.2,1462.7,1268.9,1460.6z"></path>
<path class="st13" d="M1280.2,1512c-7.5-1.6-14.6-4.7-20.9-9.2c-10-7.4,11.3,45.6,11.3,45.6S1269.7,1537.9,1280.2,1512z"></path>
<path class="st18" d="M1395.8,1359.5L1395.8,1359.5c-1.5,3.2-3.3,6.1-5.5,8.9c-0.6,0.8-1,1.2-1,1.2c-18.8-11.2-66.8,23.6-80,40.6  s-8.4,43.3-22.1,11.4c-15.2-35.4-53.6,1.4-58.3,27s-45.1,63.1-37.5,42.2s-28-41.2-41.3-95.8c-4.3-17.8-2.2-34,4.6-48.3  c13.8-29.4,47-50.7,82.2-61.3c65-19.4,115.2,1.1,141.1,16.7C1397.7,1313.9,1405.4,1338.7,1395.8,1359.5z"></path>
<path class="st19" d="M1395.8,1359.5c-1.5,3.2-3.3,6.1-5.5,8.9c-0.6,0.8-1,1.2-1,1.2c-18.8-11.2-66.8,23.6-80,40.6  s-8.4,43.3-22.1,11.4c-15.2-35.4-53.6,1.4-58.3,27s-45.1,63.1-37.5,42.2s-28-41.2-41.3-95.8c-4.3-17.8-2.2-34,4.6-48.3  c25.7,33.8,115.3,61.1,153.4,40.5C1351.6,1363.6,1395.8,1359.5,1395.8,1359.5z"></path>
<path class="st17" d="M597.7,2173.6H2731c4.7,0,8.4,2.6,8.4,5.9v14c0,3.3-3.8,5.9-8.4,5.9H597.7c-4.7,0-8.4-2.6-8.4-5.9v-14  C589.2,2176.3,593,2173.6,597.7,2173.6z"></path>
<path class="st15" d="M899.8,1528.6c0,15.7-4.5,31-12.9,44.2c-15.5,24.3-43.4,40.5-75.2,40.5c-48.7,0-88.2-37.9-88.2-84.7  c0-23.2,9.8-45.4,27-61c16.7-15.3,38.5-23.7,61.1-23.7C860.3,1444,899.8,1481.9,899.8,1528.6z"></path>
<path class="st20" d="M899.8,1532.2c0,16.2-4.4,32.2-12.9,46c-75-14.9-115-62.1-136.3-109.5c35.1-33.8,90.9-32.7,124.7,2.4  C891,1487.5,899.8,1509.4,899.8,1532.2L899.8,1532.2z"></path>
<path class="st21" d="M803.2,1545.3c0.5,0.4,1,0.8,1.5,1.2C804.2,1546.1,803.7,1545.7,803.2,1545.3z"></path>
<path class="st6" d="M806.9,1548l-1.4,1.7l-2.1,2.6l-11.4,13.9l-2,2.4l-8.3,10.2l-1.2,1.4l-1.1,1.3c-0.6,0.8-1.6,1.3-2.6,1.4  c-0.3,0-0.5,0-0.8,0c-0.7-0.1-1.4-0.4-2-0.8c-1.1-0.9-1.6-2.4-1.3-3.9c0.1-0.2,0.1-0.5,0.2-0.7l0,0c0.1-0.3,0.3-0.5,0.5-0.8l11.5-14  l2.4-2.9l11.4-14l2.1-2.5c0.7,0.7,1.5,1.4,2.3,2.1c0.5,0.4,1,0.8,1.5,1.2C805.4,1547,806.1,1547.6,806.9,1548z"></path>
<path class="st22" d="M812.4,1547.3c0,0.1-0.7,1.3-1.6,3c-1.4-0.7-2.7-1.4-3.9-2.2l-1.4,1.7l-2.1,2.6c-1.6-2.2-3.3-4.7-4.5-6.6  l2.1-2.5c-0.4-0.4-0.8-0.8-1.1-1.2C805,1541.8,812.4,1547.1,812.4,1547.3z"></path>
<path class="st6" d="M841.2,1484.6c-17.8-7.9-38.6-0.3-47.2,17.1c-0.2,0.4-0.4,0.8-0.6,1.3c-3,6.8-3.9,14.3-2.4,21.6  c1.3,6.5,4.3,12.6,8.8,17.5c0.4,0.4,0.7,0.8,1.1,1.2c0.7,0.7,1.5,1.4,2.3,2.1c0.5,0.4,1,0.8,1.5,1.2c0.7,0.5,1.4,1,2.2,1.5  c1.3,0.8,2.6,1.6,3.9,2.2c0.3,0.2,0.7,0.3,1.1,0.5c8.8,3.9,18.7,4.2,27.7,0.7c18.7-7.2,27.9-28.2,20.7-46.8  C856.9,1495.7,850,1488.5,841.2,1484.6z M852.3,1529.1c-6.2,14.3-22.9,20.8-37.2,14.5c-14.3-6.2-20.8-22.9-14.5-37.2l0.1-0.2  c4.7-10.5,15.2-17.1,26.6-16.8c13.2,0.4,24.3,9.9,26.8,22.9C855.3,1518,854.7,1523.8,852.3,1529.1L852.3,1529.1z"></path>
<path class="st15" d="M935.3,1052.2c0,131-103,238-232.5,244.4c-4,0.2-8.1,0.3-12.2,0.3c-135.1,0-244.7-109.6-244.7-244.7  c0-105.3,66.6-195.1,159.9-229.6c27.1-10,55.8-15.1,84.8-15.1C825.8,807.5,935.3,917,935.3,1052.2z"></path>
<g class="st23">
	<path class="st6" d="M702.8,1296.6c-144.7-155.2-135.4-338.9-96.9-474c27.1-10,55.8-15.1,84.8-15.1   c135.1,0,244.7,109.5,244.7,244.7C935.3,1183.2,832.3,1290.2,702.8,1296.6z"></path>
</g>
<rect x="771.3" y="994.3" class="st6" width="36.3" height="151.6"></rect>
<rect x="648" y="1065.1" class="st6" width="36.3" height="80.8"></rect>
<rect x="586.4" y="1092.5" class="st6" width="36.3" height="53.4"></rect>
<rect x="709.6" y="1033.2" class="st6" width="36.3" height="112.7"></rect>
<rect x="573.2" y="995.5" transform="matrix(0.8754 -0.4834 0.4834 0.8754 -399.5918 452.985)" class="st6" width="211.2" height="12.1"></rect>
<polygon class="st6" points="797.5,934.8 760,936.8 780.5,968.2 "></polygon>
<polygon class="st6" points="807.5,1175.5 560.9,1175.5 560.9,950.6 565.7,950.6 565.7,1170.7 807.5,1170.7 "></polygon>
<path class="st24" d="M2133.1,640.6c2,14.3,1.3,28.8-1.9,42.8l0,0c-1.5,6.4-3.5,12.7-6,18.8c-0.7,1.8-1.5,3.6-2.3,5.3  c-27.1,57.8-94.8,84-153.8,59.7c-2.7-1.1-5.4-2.3-8-3.6c-59.1-29.6-83-101.4-53.5-160.5c26.5-53.1,88-78.7,144.4-60.1  c2.8,0.9,5.5,1.9,8.2,3C2099.6,562.2,2127.4,598.3,2133.1,640.6z"></path>
<path class="st16" d="M2109,695.6c-1.5,3.7-3.2,7.2-5,10.6c-27.3,51.4-87.7,75.7-143,57.5c-2.7-0.9-5.5-1.9-8.2-3  c-61.1-25.2-90.2-95.2-65-156.3c5.6-13.6,13.7-26.1,23.9-36.8l0,0c6.2-6.5,13.1-12.2,20.5-17.2l0.3-0.2  c33.1-21.8,74.8-25.8,111.4-10.7c2.7,1.1,5.4,2.3,8,3.6C2107.9,571.1,2132.8,637.6,2109,695.6z"></path>
<ellipse transform="matrix(0.7071 -0.7071 0.7071 0.7071 125.6916 1603.4526)" class="st15" cx="1998.4" cy="650" rx="95.9" ry="96"></ellipse>
<path class="st24" d="M1914.2,621.1c20.2-49,76.4-72.3,125.4-52.1c17.6,7.3,32.6,19.6,43.2,35.4c-25.2-46.6-83.4-64-130-38.8  s-64,83.4-38.8,130C1904.5,671.8,1904.6,645.1,1914.2,621.1L1914.2,621.1z"></path>
<path class="st9" d="M2024.4,600.7l4.2-10.1l-10.3-4.2l-4.2,10.1c-17-6-24.7-2.3-31.9,15.2c-6.3,15.2-7.2,21.3-3.1,27.6  c4.5,7.2,16.5,16.2,19.8,23.4c1.5,2.9,1.1,4.6-0.3,8.1c-0.2,0.5-0.4,1-0.7,1.7c-4,9.6-5.9,11.9-13.1,9c-7.4-3-6.1-7.5-3-15  c0.7-1.7,1.5-3.3,2.4-4.9l-18.1-7.5c-2.1,3.4-3.9,7-5.4,10.8c-7.1,17.3-2,25.2,12.1,31.8l-5.2,12.7l10.3,4.2l5.3-12.9  c17.1,5.6,25,0.7,33.8-18.7c0.8-1.7,1.5-3.4,2.3-5.3c6.9-16.8,2.7-20.5-3.2-27.1c-4.2-4.6-9.4-8.8-14.3-14.1  c-4.6-4.7-4.7-5.8-1.2-14.3c3.4-8.2,5.8-9.5,11.7-7c6.9,2.8,6.4,6.7,3.6,13.5c-0.7,1.9-1.5,3.7-2.4,5.5l18,7.4  c1.8-3.1,3.4-6.4,4.8-9.7C2042.7,615.3,2039.5,607.7,2024.4,600.7z"></path>
<path class="st15" d="M2887,1290.6c-24.7,111.8-135.3,182.5-247.2,157.8c0,0,0,0,0,0c-111.8-24.7-182.4-135.3-157.8-247.2  c24.7-111.8,135.3-182.5,247.2-157.8c0,0,0,0,0,0C2841,1068.1,2911.6,1178.7,2887,1290.6z"></path>
<g class="st23">
	<path class="st6" d="M2639.8,1448.4c-111.8-24.7-182.4-135.3-157.8-247.2c11.2-51.1,41.4-96.1,84.5-125.8   c-29.6,166.2,130.2,295.6,217.3,352.6C2739.8,1452,2688.6,1459.3,2639.8,1448.4z"></path>
</g>
<path class="st10" d="M2763.4,1314.2c-0.1,0.2-0.7,5.3-1.3,10.2c-0.9,6.1-3.3,11.8-7.1,16.6l-27.4,35.9c-4.5,5.9-4.5,13,0.1,15.5  l0,0c3.9,2.1,9.9,0,14-5l48.8-58.4L2763.4,1314.2z"></path>
<path class="st6" d="M2527.3,1256.7c0,0,96.3-17.1,197.4,66l42.7-52c-101.2-83-103-180.8-103-180.8L2527.3,1256.7z"></path>
<ellipse transform="matrix(0.6349 -0.7726 0.7726 0.6349 41.2875 2433.9851)" class="st17" cx="2595.8" cy="1173.3" rx="107.9" ry="43.9"></ellipse>
<path class="st10" d="M2660.5,1094.4c-15.9-13.1-57.6,11.2-93,54.4s-51.2,88.7-35.3,101.8s57.6-11.2,93-54.4  S2676.5,1107.5,2660.5,1094.4z"></path>
<path class="st25" d="M2794,1292.1l-35.1-28.9l-0.9,2.2c-7.9,19.4-21.4,36-38.6,47.8l-3.5,2.4l35.1,28.9c11.3,9.2,27.6,8,36.5-2.9  l10.8-13.2C2807.2,1317.7,2805.3,1301.4,2794,1292.1z"></path>
<path class="st17" d="M2715.8,1315.7l11.7,9.6l8.9,7.3l14.6,11.9c11.2,9.2,27.6,8,36.5-2.9l10.8-13.2c8.9-10.8,7-27.1-4.2-36.4  l-16-13.2l-8.1-6.6l-11.1-9.1l-0.9,2.2c-7.9,19.4-21.4,36-38.6,47.8L2715.8,1315.7z"></path>
<path class="st10" d="M2727.4,1325.3l8.9,7.3c17.8-14.5,32-32.9,41.6-53.7l-8.1-6.6C2760,1293,2745.4,1311.1,2727.4,1325.3z"></path>
<path class="st15" d="M2588.8,1166.3c-5.3,6.4-5.8,15.7-1.3,23.4l16.9,29.1c14.7-14.2,27.8-30.1,38.9-47.4l-31.9-10.9  C2603,1157.6,2594.1,1159.9,2588.8,1166.3z"></path>
<path class="st6" d="M2598.6,1174.3c-4.8,5.8-10.8,8.7-13.5,6.5s-1-8.7,3.8-14.5s10.8-8.7,13.5-6.5S2603.3,1168.5,2598.6,1174.3z"></path>
<g class="st26">
	<path class="st25" d="M2719.3,1313.3c8-5.5,15.2-12,21.4-19.4c19.1,8,39.3,23.2,59.9,31.2c-0.7,1.2-1.5,2.4-2.4,3.5l-10.8,13.2   c-8.9,10.8-25.3,12.1-36.5,2.9l-14.6-11.9l-8.9-7.3l-11.7-9.6L2719.3,1313.3z"></path>
</g>
<path class="st27" d="M2528.1,977.3c2.2,1.9,4.1,3.9,6.1,6s3.8,4.1,5.6,6.2c3.6,4.2,6.9,8.6,10.1,13c12.6,17.8,23.1,36.9,31.1,57.2  c2,5.1,3.8,10.3,5.4,15.6c0.8,2.7,1.6,5.3,2.2,8.1s1.3,5.5,1.7,8.3c-2.2-1.9-4.2-3.9-6.1-6s-3.8-4.1-5.6-6.2  c-3.6-4.2-6.9-8.6-10.1-13c-6.3-8.9-12.1-18.1-17.2-27.7c-5.2-9.5-9.8-19.4-13.9-29.5c-2-5.1-3.8-10.3-5.4-15.6  c-0.8-2.7-1.6-5.3-2.2-8S2528.5,980.2,2528.1,977.3z"></path>
<path class="st27" d="M2549.7,1129.9c-2.9-1.1-5.7-2.4-8.5-3.8s-5.4-2.8-8.1-4.2c-5.3-2.9-10.5-6.1-15.5-9.3  c-10-6.6-19.6-13.7-28.8-21.3c-9.2-7.6-18-15.7-26.3-24.2c-4.2-4.3-8.2-8.8-12.1-13.4c-1.9-2.3-3.8-4.7-5.7-7.2s-3.6-5-5.3-7.6  c2.9,1.1,5.7,2.4,8.5,3.8s5.4,2.8,8.1,4.2c5.3,2.9,10.5,6.1,15.5,9.3c10,6.6,19.6,13.7,28.8,21.3c9.2,7.6,18,15.7,26.3,24.3  c4.2,4.3,8.2,8.8,12.1,13.4c1.9,2.3,3.8,4.7,5.7,7.2S2548.1,1127.3,2549.7,1129.9z"></path>
<path class="st27" d="M2518.5,1178.5c-3-0.2-5.9-0.5-8.8-1s-5.7-0.9-8.5-1.5c-5.6-1.1-11.2-2.5-16.6-4.1c-10.9-3.1-21.6-6.9-32-11.2  c-10.5-4.3-20.6-9.3-30.5-14.8c-5-2.8-9.8-5.8-14.6-9c-2.4-1.6-4.8-3.3-7.1-5s-4.6-3.6-6.8-5.6c3,0.2,5.9,0.5,8.8,0.9  s5.7,0.9,8.5,1.5c5.6,1.2,11.2,2.5,16.6,4.1c10.9,3.1,21.6,6.9,32,11.3c10.4,4.3,20.6,9.3,30.5,14.8c5,2.8,9.8,5.8,14.6,9  c2.4,1.6,4.8,3.3,7.1,5S2516.3,1176.5,2518.5,1178.5z"></path>
</svg>